<?xml version="1.0" encoding="utf-8"?>
<!-- Generator: Adobe Illustrator 19.1.0, SVG Export Plug-In . SVG Version: 6.00 Build 0)  -->
<svg version="1.1" id="Layer_1" xmlns="http://www.w3.org/2000/svg" xmlns:xlink="http://www.w3.org/1999/xlink" x="0px" y="0px"
	 viewBox="0 0 422.6 63" style="enable-background:new 0 0 422.6 63;" xml:space="preserve">
<style type="text/css">
	.st0{fill:#FFFFFF;}
	.st1{display:none;}
</style>
<g id="Layer_2">
	<g>
		<g>
			<g>
				<path class="st0" d="M43,9.6c0.9,0.4,1.7,0.9,2.4,1.6c0.7,0.6,1.2,1.4,1.6,2.3c0.4,0.9,0.6,1.8,0.6,2.8v36.3
					c0,0.3-0.1,0.6-0.4,0.8c-0.2,0.2-0.5,0.3-0.9,0.3h-8.9c-0.3,0-0.6-0.1-0.8-0.3s-0.3-0.5-0.3-0.8v-33H29v33
					c0,0.3-0.1,0.6-0.3,0.8s-0.5,0.3-0.8,0.3h-8.1c-0.3,0-0.6-0.1-0.9-0.3c-0.2-0.2-0.4-0.5-0.4-0.8v-33h-7.2v33
					c0,0.8-0.4,1.2-1.2,1.2H1.2c-0.8,0-1.2-0.4-1.2-1.2V10.2C0,9.4,0.4,9,1.2,9H40C41.1,9,42,9.2,43,9.6z"/>
			</g>
			<g>
				<path class="st0" d="M86.6,42.9c0.4,0,0.7,0.1,0.9,0.4c0.2,0.2,0.3,0.5,0.3,0.9v8.5c0,0.3-0.1,0.6-0.3,0.9
					C87.3,53.8,87,54,86.6,54H56c-0.9,0-1.3-0.4-1.3-1.2V10.4c0-0.8,0.4-1.2,1.3-1.2h9.4c0.9,0,1.3,0.4,1.3,1.2V42
					c0,0.3,0.1,0.6,0.4,0.8c0.2,0.2,0.6,0.3,0.9,0.3h18.6V42.9z"/>
			</g>
			<g>
				<path class="st0" d="M133.7,9c0.4,0,0.7,0.1,0.9,0.4c0.3,0.2,0.4,0.5,0.4,0.9v42.5c0,0.3-0.1,0.6-0.4,0.9
					c-0.3,0.2-0.6,0.4-0.9,0.4h-9.5c-0.4,0-0.7-0.1-0.9-0.4c-0.3-0.2-0.4-0.5-0.4-0.9V38c0-0.3-0.1-0.6-0.3-0.8s-0.5-0.3-0.9-0.3
					h-13.4c-0.4,0-0.7,0.1-0.9,0.3c-0.3,0.2-0.4,0.5-0.4,0.8v14.8c0,0.8-0.4,1.2-1.3,1.2h-9.5c-0.9,0-1.3-0.4-1.3-1.2V10.3
					c0-0.8,0.4-1.2,1.3-1.2h9.5c0.9,0,1.3,0.4,1.3,1.2v14.4c0,0.8,0.4,1.2,1.3,1.2h13.4c0.4,0,0.7-0.1,0.9-0.4
					c0.2-0.2,0.3-0.5,0.3-0.9V10.2c0-0.3,0.1-0.6,0.4-0.9c0.3-0.2,0.6-0.4,0.9-0.4L133.7,9L133.7,9z"/>
			</g>
		</g>
	</g>
	<g>
		<rect x="152.5" class="st0" width="1" height="63"/>
	</g>
	<g>
		<g>
			<path class="st0" d="M178.7,8.7v19H194v-19h7.3V54H194V34.6h-15.3V54h-7.3V8.7H178.7z"/>
			<path class="st0" d="M240.4,21.6V54h-7.3v-3.4c-1.4,1.7-4.9,3.8-9.3,3.8c-9.3,0-16.3-6.9-16.3-16.6c0-9.7,7-16.6,16.3-16.6
				c4.3,0,7.9,2,9.3,3.8v-3.4H240.4z M224.1,28.1c-5.4,0-9.5,4.4-9.5,9.7s4.1,9.7,9.5,9.7c5.2,0,9.3-4.4,9.3-9.7
				S229.4,28.1,224.1,28.1z"/>
			<path class="st0" d="M263.9,47.7c5.5,0,9.4-4,9.4-9.8h7.1c0,9.5-7.1,16.6-16.5,16.6c-9.5,0-16.6-7.1-16.6-16.6
				s7.1-16.6,16.6-16.6c5.1,0,8.9,1.9,11.9,4.9l-5.2,4.7c-1.6-1.7-3.8-2.9-6.6-2.9c-5.6,0-9.3,4-9.3,9.8
				C254.6,43.7,258.3,47.7,263.9,47.7z"/>
			<path class="st0" d="M300.6,21.6h8.2l-6.8,9.7L315.5,54h-8.1l-9.8-16.5l-4.3,6.3V54h-7.1V8.7l7.1-0.8v24.7L300.6,21.6z"/>
			<path class="st0" d="M332.5,47.7c5.5,0,9.4-4,9.4-9.8h7.1c0,9.5-7.1,16.6-16.5,16.6c-9.5,0-16.6-7.1-16.6-16.6
				s7.1-16.6,16.6-16.6c5.1,0,8.9,1.9,11.9,4.9l-5.2,4.7c-1.6-1.7-3.8-2.9-6.6-2.9c-5.6,0-9.3,4-9.3,9.8
				C323.2,43.7,326.9,47.7,332.5,47.7z"/>
			<path class="st0" d="M370.4,21.2c9.6,0,16.6,7.1,16.6,16.6s-7,16.6-16.6,16.6s-16.6-7.1-16.6-16.6
				C353.8,28.4,360.8,21.2,370.4,21.2z M370.4,47.5c5.6,0,9.3-4.1,9.3-9.7c0-5.6-3.8-9.7-9.3-9.7c-5.6,0-9.3,4.1-9.3,9.7
				C361.1,43.5,364.8,47.5,370.4,47.5z"/>
			<path class="st0" d="M394.2,21.6h7.1v3.7c1.5-1.9,4.4-4.1,8.9-4.1c8,0,12.4,4.7,12.4,13.3V54h-7.1V36.1c0-5.7-2.4-8.2-7.1-8.2
				c-4.7,0-7.1,3.4-7.1,8.2V54h-7.1L394.2,21.6L394.2,21.6z"/>
		</g>
	</g>
</g>
<g id="Layer_1_1_" class="st1">
</g>
</svg>
