<?xml version="1.0" encoding="UTF-8" standalone="no"?>
<svg width="1134px" height="573px" viewBox="0 0 1134 573" version="1.1" xmlns="http://www.w3.org/2000/svg" xmlns:xlink="http://www.w3.org/1999/xlink">
    <!-- Generator: Sketch 3.7.2 (28276) - http://www.bohemiancoding.com/sketch -->
    <title>Artboard 1</title>
    <desc>Created with Sketch.</desc>
    <defs></defs>
    <g id="Page-1" stroke="none" stroke-width="1" fill="none" fill-rule="evenodd">
        <g id="Artboard-1" fill="#000000">
            <path d="M1014.606,557.093 C1015.619,556.937 1016.865,556.09 1017.495,555.126 C1018.503,553.591 1018.61,551.015 1018.61,528.006 L1018.61,502.577 L1010.494,502.672 C1001.599,502.773 1000.233,503.182 998.32,506.317 C997.12,508.289 997.075,508.305 997.132,506.758 C997.165,505.872 997.532,503.703 997.946,501.935 C998.635,498.99 998.835,498.747 1000.296,499.04 C1001.174,499.219 1011.656,499.363 1023.593,499.363 L1045.295,499.363 L1045.255,504.185 C1045.221,508.765 1045.179,508.897 1044.451,506.765 C1043.381,503.636 1041.5,502.962 1032.468,502.477 L1024.645,502.055 L1024.844,528.131 C1025.026,552.472 1025.118,554.294 1026.232,555.525 C1026.889,556.248 1028.48,556.952 1029.767,557.089 C1031.055,557.226 1027.771,557.344 1022.465,557.35 C1017.16,557.356 1013.62,557.239 1014.606,557.093 L1014.606,557.093 Z M970.16,557.099 C973.422,556.597 973.599,555.102 973.59,527.874 C973.587,504.627 973.509,502.937 972.402,501.707 C971.749,500.989 970.302,500.284 969.19,500.144 C968.078,500.004 971.364,499.872 976.495,499.854 C982.364,499.83 985.018,500.004 983.667,500.323 C982.484,500.605 981.181,501.168 980.773,501.578 C980.235,502.114 980.028,509.475 980.028,528.263 C980.028,552.633 980.101,554.283 981.224,555.525 C981.879,556.248 983.47,556.952 984.757,557.089 C986.045,557.226 982.906,557.341 977.778,557.35 C972.651,557.356 969.222,557.243 970.16,557.099 L970.16,557.099 Z M769.588,501.655 C774.562,501.803 778.169,504.11 780.519,508.607 C782.061,511.56 782.306,512.802 782.306,517.308 C782.306,523.236 780.803,527.211 777.684,529.483 C776.076,530.655 770.171,531.573 768.484,530.91 C768.129,530.77 766.754,530.467 765.428,530.247 L763.018,529.845 L763.018,516.101 L763.018,502.337 L765.911,501.895 C767.205,501.701 768.441,501.621 769.588,501.655 L769.588,501.655 Z M762.074,499.764 C754.797,499.811 750.829,500.027 752.289,500.308 C757.121,501.243 756.91,499.918 756.91,528.479 C756.91,556.056 756.847,556.588 753.534,557.093 C752.56,557.238 755.96,557.367 761.088,557.373 C766.216,557.378 769.688,557.271 768.804,557.131 C764.944,556.523 764.406,556.206 763.72,554.239 C763.33,553.114 763.018,547.948 763.018,542.643 L763.018,533.08 L768.642,533.259 L774.27,533.441 L777.485,537.881 C785.223,548.571 790.695,554.972 793.198,556.248 C795.293,557.316 796.902,557.535 802.058,557.474 C807.563,557.407 807.958,557.326 805.233,556.869 C803.521,556.584 801.042,555.648 799.727,554.779 C797.022,552.989 791.236,546.612 784.115,537.6 L779.272,531.473 L782.086,528.276 C789.847,519.453 790.729,510.194 784.397,504.026 C780.692,500.412 776.806,499.674 762.074,499.764 L762.074,499.764 Z M619.94,556.991 C623.399,556.249 623.473,555.648 623.484,528.259 C623.489,509.155 623.3,502.891 622.688,502.072 C622.248,501.481 620.728,500.733 619.314,500.407 C617.365,499.958 619.076,499.815 626.388,499.815 C632.727,499.815 635.272,499.993 633.812,500.337 C630.157,501.2 629.923,501.993 629.923,513.631 L629.923,524.117 L646.961,524.117 L664.001,524.117 L664.001,513.631 C664.001,506.254 663.763,502.822 663.197,502.05 C662.755,501.447 661.092,500.701 659.5,500.392 C657.296,499.96 658.91,499.823 666.252,499.811 C672.908,499.801 675.299,499.973 673.969,500.369 C672.908,500.687 671.678,501.44 671.236,502.045 C670.072,503.636 670.093,552.669 671.259,554.982 C671.88,556.218 672.735,556.679 674.947,556.976 C676.529,557.188 673.486,557.362 668.18,557.362 C662.877,557.362 659.309,557.243 660.257,557.098 C663.499,556.6 663.665,555.86 663.884,540.739 L664.092,526.69 L647.006,526.69 L629.923,526.69 L629.923,539.453 C629.923,555.87 630.042,556.233 635.71,557.126 C636.594,557.264 632.979,557.383 627.673,557.39 C622.37,557.397 618.887,557.217 619.94,556.991 L619.94,556.991 Z M1059.104,557.533 C1058.876,557.164 1061.37,552.753 1064.642,547.725 C1081.687,521.549 1093.001,503.959 1093.308,503.157 C1093.592,502.415 1092.354,502.262 1086.35,502.283 C1082.337,502.299 1076.044,502.561 1072.372,502.866 C1066.204,503.376 1065.552,503.56 1063.816,505.298 C1062.783,506.332 1061.53,508.313 1061.034,509.7 C1059.926,512.814 1059.875,511.776 1060.797,505.152 L1061.514,500.005 L1081.536,500.222 C1092.546,500.343 1101.637,500.522 1101.738,500.622 C1101.837,500.72 1094.096,512.864 1084.538,527.606 C1074.976,542.35 1067.156,554.541 1067.156,554.696 C1067.156,555.142 1093.112,555.03 1095.388,554.574 C1098.061,554.041 1101.142,551.104 1101.637,548.611 C1101.857,547.518 1102.319,546.623 1102.671,546.623 C1103.303,546.623 1103.167,547.917 1101.806,554.821 L1101.142,558.196 L1080.325,558.196 C1066.692,558.196 1059.373,557.967 1059.104,557.533 L1059.104,557.533 Z M895.14,558.037 C894.98,557.593 892.079,547.972 888.695,536.656 C879.981,507.53 878.86,504.018 877.808,502.644 C877.294,501.976 875.487,501.053 873.796,500.601 C870.948,499.832 871.454,499.777 880.688,499.823 C886.171,499.854 889.879,499.993 888.934,500.138 C886.058,500.58 885.562,501.74 886.415,506.06 C887.217,510.144 897.329,546.762 897.78,547.21 C897.929,547.36 898.151,547.36 898.277,547.212 C898.403,547.063 902.306,536.691 906.948,524.158 C914.95,502.573 916.201,499.618 917.017,500.436 C917.207,500.626 920.999,511.165 925.438,523.859 C929.879,536.552 933.636,547.059 933.784,547.208 C933.933,547.358 934.183,547.352 934.336,547.198 C935.204,546.332 946.915,505.695 946.915,503.556 C946.915,501.42 946.675,500.945 945.469,500.687 C944.675,500.518 943.443,500.257 942.736,500.106 C942.03,499.956 945.356,499.83 950.13,499.823 C955.208,499.82 957.985,500.014 956.826,500.29 C955.733,500.552 954.499,500.978 954.081,501.235 C952.419,502.262 949.945,508.748 942.149,532.476 C937.674,546.09 933.728,557.665 933.38,558.196 C932.828,559.038 932.635,559.015 931.873,558.023 C931.392,557.395 928.952,551.03 926.452,543.876 C923.948,536.721 920.401,526.581 918.567,521.343 C916.737,516.101 915.005,512.051 914.719,512.342 C914.433,512.63 910.547,522.684 906.083,534.686 C901.619,546.686 897.685,557.03 897.341,557.673 C896.618,559.024 895.568,559.197 895.14,558.037 L895.14,558.037 Z M836.28,501.03 C837.198,501.024 838.249,501.04 839.532,501.091 C844.809,501.301 846.125,501.595 849.097,503.223 C859.595,508.964 864.824,523.224 861.754,537.702 C859.973,546.111 856.262,551.175 849.501,554.418 C846.249,555.976 844.876,556.254 840.819,556.206 C838.168,556.178 835.272,555.934 834.39,555.664 C825.636,552.994 818.891,544.936 816.686,534.526 C813.547,519.711 818.913,506.312 829.627,502.278 C832.025,501.375 833.517,501.053 836.28,501.03 L836.28,501.03 Z M839.171,498.581 C832.61,498.639 826.14,500.398 821.387,503.884 C817.361,506.838 812.838,512.666 811.181,517.045 C804.621,534.384 813.184,553.159 829.828,557.935 C834.465,559.267 846.061,558.763 850.463,557.032 C858.372,553.921 865.441,546.26 867.946,538.082 C869.877,531.774 869.865,522.215 867.922,516.825 C866.325,512.384 862.932,507.576 859.486,504.847 C854.155,500.626 846.607,498.513 839.171,498.581 L839.171,498.581 Z M710.896,501.03 C711.814,501.024 712.864,501.04 714.15,501.091 C719.425,501.301 720.741,501.595 723.714,503.223 C734.21,508.964 739.442,523.224 736.374,537.702 C734.591,546.111 730.88,551.175 724.116,554.418 C720.869,555.976 719.496,556.254 715.437,556.206 C712.783,556.178 709.89,555.934 709.006,555.664 C700.254,552.994 693.511,544.936 691.304,534.526 C688.163,519.711 693.531,506.312 704.245,502.278 C706.64,501.375 708.135,501.053 710.896,501.03 L710.896,501.03 Z M713.789,498.581 C707.227,498.639 700.758,500.398 696.005,503.884 C691.978,506.838 687.457,512.666 685.799,517.045 C679.239,534.384 687.802,553.159 704.446,557.935 C709.083,559.267 720.678,558.763 725.082,557.032 C732.986,553.921 740.057,546.26 742.561,538.082 C744.496,531.774 744.483,522.215 742.543,516.825 C740.943,512.384 737.55,507.576 734.104,504.847 C728.771,500.626 721.225,498.513 713.789,498.581 L713.789,498.581 Z M254.044,501.008 C262.642,501.051 267.971,507.703 267.327,518.286 C267.02,523.312 265.47,526.856 262.745,528.796 C260.799,530.181 255.36,530.919 252.337,530.204 C251.629,530.035 250.399,529.749 249.604,529.58 C248.159,529.271 248.158,529.254 248.158,515.535 L248.158,501.811 L250.167,501.409 C251.521,501.139 252.816,501 254.044,501.008 L254.044,501.008 Z M243.355,499.279 C238.663,499.308 236.38,499.45 237.506,499.681 C238.894,499.964 240.368,500.675 240.803,501.27 C242.642,503.784 242.872,550.538 241.063,554.495 C240.504,555.721 239.685,556.308 238.27,556.485 C237.171,556.623 240.602,556.743 245.907,556.745 C251.212,556.749 254.261,556.576 252.676,556.365 C248.515,555.806 248.188,554.796 248.177,542.641 L248.158,532.514 L253.623,532.514 L259.108,532.514 L262.14,536.812 C267.786,544.763 275.016,553.527 277.193,555.079 C279.126,556.458 280.076,556.631 286.415,556.726 C291.189,556.798 292.547,556.696 290.593,556.384 C284.824,555.466 281.881,552.892 271.365,539.606 L264.432,530.844 L266.663,528.293 C276.259,517.323 275.762,505.469 265.517,500.746 C262.906,499.543 261.278,499.409 248.8,499.3 C246.738,499.282 244.919,499.27 243.355,499.279 L243.355,499.279 Z M61.952,509.567 C62.463,509.737 69.983,530.055 70.029,531.389 C70.038,531.654 66.484,531.871 62.112,531.871 L54.155,531.871 L57.752,520.617 C59.733,514.43 61.626,509.457 61.952,509.567 L61.952,509.567 Z M63.318,498.033 C62.52,498.103 61.018,502.09 52.929,524.356 C48.15,537.509 43.714,549.424 43.084,550.839 C41.611,554.15 39.779,555.742 36.775,556.323 C35.289,556.611 37.812,556.801 43.365,556.808 C49.214,556.812 51.608,556.639 50.196,556.304 C47.619,555.695 46.826,554.639 47.304,552.446 C48.144,548.588 52.95,534.711 53.593,534.282 C54.542,533.649 69.528,533.685 70.531,534.321 C70.966,534.599 73.023,539.284 75.112,544.75 C77.896,552.029 78.763,554.996 78.327,555.823 C77.776,556.866 78.29,556.947 85.622,556.886 C91.985,556.834 93.021,556.705 90.966,556.225 C85.781,555.009 85.312,554.117 73.164,522.347 C68.203,509.369 63.909,498.518 63.619,498.213 C63.516,498.107 63.43,498.024 63.318,498.033 L63.318,498.033 Z M560.662,546.719 C554.581,540.563 544.393,529.784 538.024,522.769 C531.656,515.751 526.289,510.009 526.099,510.009 C525.564,510.009 526.607,549.242 527.217,552.042 C527.896,555.157 528.477,555.736 531.525,556.324 C533.049,556.621 530.705,556.788 525.288,556.77 C520.513,556.755 517.547,556.623 518.695,556.482 C519.986,556.321 521.094,555.685 521.59,554.817 C522.19,553.767 522.445,546.363 522.592,525.524 L522.791,497.639 L524.443,499.161 C525.349,499.999 535.635,511.03 547.3,523.671 C558.964,536.315 568.695,546.659 568.923,546.659 C569.972,546.659 568.597,502.849 567.499,501.354 C567.092,500.801 565.46,500.095 563.867,499.784 C561.606,499.341 562.87,499.215 569.654,499.204 C575.746,499.194 577.758,499.361 576.407,499.763 C572.823,500.832 572.874,500.412 572.805,528.617 C572.769,542.961 572.51,555.422 572.229,556.304 C571.744,557.828 571.138,557.32 560.662,546.719 L560.662,546.719 Z M480.278,556.948 C476.214,556.735 473.645,556.502 474.574,556.432 C478.022,556.171 478.014,556.231 478.217,528.556 L478.404,502.931 L476.801,501.326 C475.847,500.372 474.333,499.661 473.075,499.576 C471.911,499.499 478.192,499.282 487.031,499.095 C495.873,498.908 503.183,498.785 503.278,498.823 C503.375,498.861 503.259,500.981 503.022,503.536 L502.59,508.183 L501.764,505.784 C501.312,504.464 500.558,503.148 500.093,502.859 C498.703,501.99 494.403,501.557 489.28,501.771 L484.46,501.97 L484.282,513.384 L484.107,524.796 L491.561,524.796 C495.669,524.796 499.593,524.488 500.309,524.102 C501.025,523.719 501.754,523.555 501.933,523.735 C502.114,523.913 502.021,526.323 501.729,529.089 C501.404,532.187 501.118,533.311 500.988,532.019 C500.669,528.895 498.952,528.137 491.047,527.627 L484.137,527.18 L484.173,538.044 C484.195,544.68 484.509,549.785 484.977,551.157 C486.036,554.262 489.094,555.235 495.926,554.639 C501.738,554.133 503.805,552.862 504.753,549.219 C505.206,547.471 505.268,547.948 505.04,551.393 C504.88,553.823 504.417,556.209 504.008,556.698 C503.22,557.652 495.331,557.732 480.278,556.948 L480.278,556.948 Z M348.466,556.948 C344.398,556.735 341.858,556.502 342.818,556.432 C346.142,556.188 346.216,555.567 346.216,527.796 L346.216,502.18 L344.7,500.949 C343.864,500.273 342.273,499.659 341.162,499.582 C339.794,499.489 368.167,498.715 371.401,498.758 C371.461,498.758 371.304,500.93 371.048,503.581 C370.663,507.655 370.518,508.088 370.101,506.378 C369.176,502.551 367.821,501.97 359.813,501.97 L352.644,501.97 L352.47,513.384 L352.296,524.796 L359.746,524.796 C363.858,524.796 367.781,524.487 368.498,524.102 C369.21,523.719 369.918,523.528 370.062,523.675 C370.209,523.821 370.129,526.233 369.885,529.032 C369.466,533.834 369.408,533.986 368.854,531.697 C368.53,530.362 367.756,528.998 367.137,528.666 C366.518,528.336 362.93,527.867 359.167,527.622 L352.325,527.18 L352.361,538.044 C352.406,551.222 352.872,553.059 356.49,554.243 C359.807,555.327 368.566,554.648 370.386,553.165 C371.089,552.593 372.097,550.968 372.634,549.552 L373.601,546.982 L373.257,551.029 C372.692,557.713 372.841,557.611 363.714,557.461 C359.394,557.39 352.534,557.158 348.466,556.948 L348.466,556.948 Z M303.458,556.948 C299.39,556.735 296.85,556.502 297.808,556.432 C301.134,556.188 301.208,555.567 301.208,527.796 L301.208,502.18 L299.688,500.949 C298.854,500.273 297.264,499.659 296.151,499.582 C294.784,499.489 323.155,498.715 326.39,498.758 C326.451,498.758 326.294,500.93 326.042,503.581 C325.656,507.655 325.507,508.088 325.092,506.378 C324.182,502.616 322.798,502.002 314.643,501.743 L307.316,501.51 L307.316,513.153 L307.316,524.796 L315.224,524.796 C320.458,524.796 323.39,524.539 323.893,524.036 C325.146,522.782 325.304,523.652 324.794,529.012 C324.355,533.62 324.26,533.885 323.82,531.718 C323.553,530.396 322.81,529.032 322.169,528.689 C321.524,528.345 317.899,527.864 314.105,527.619 L307.213,527.174 L307.424,539.39 C307.585,548.522 307.86,551.876 308.517,552.665 C309.938,554.374 313.961,555.111 319.257,554.629 C324.816,554.128 326.222,553.276 327.62,549.552 L328.592,546.982 L328.249,551.029 C327.681,557.713 327.835,557.611 318.707,557.461 C314.387,557.39 307.527,557.158 303.458,556.948 L303.458,556.948 Z M140.631,545.875 C134.359,539.41 124.376,528.718 118.448,522.116 C112.517,515.512 107.431,510.087 107.14,510.059 C106.479,509.997 107.255,545.618 108.027,550.788 C108.34,552.883 108.887,554.888 109.244,555.244 C109.601,555.601 111.127,556.094 112.638,556.34 C114.333,556.615 111.937,556.783 106.381,556.782 C101.431,556.78 98.392,556.599 99.629,556.379 C103.309,555.731 103.412,554.879 103.452,524.657 C103.48,503.469 103.658,497.9 104.292,498.148 C104.733,498.323 115.2,509.45 127.549,522.882 C139.899,536.308 150.097,547.201 150.215,547.085 C150.332,546.969 150.188,536.829 149.894,524.558 C149.301,499.644 149.536,500.746 144.605,499.78 C142.419,499.352 143.863,499.219 150.749,499.214 C156.532,499.211 158.981,499.392 157.6,499.717 C156.419,499.998 155.116,500.56 154.707,500.97 C154.172,501.503 153.913,509.566 153.782,529.65 C153.644,551.089 153.42,557.595 152.818,557.609 C152.387,557.619 146.901,552.337 140.631,545.875 L140.631,545.875 Z M433.833,557.243 C430.191,556.079 429.93,555.36 430.695,548.588 C430.993,545.935 431.276,544.615 431.325,545.652 C431.492,549.261 433.824,552.898 436.947,554.407 C440.988,556.365 447.652,556.026 450.513,553.718 C453.148,551.596 454.559,548.542 454.559,544.966 C454.559,540.615 453.014,538.078 447.246,532.954 C435.421,522.446 433.215,519.556 432.432,513.546 C431.939,509.749 432.68,506.849 435.003,503.496 C438.301,498.741 444.359,497.257 454.721,498.667 L458.418,499.17 L458.375,504.109 C458.339,508.104 458.209,508.738 457.677,507.438 C455.271,501.515 453.127,500.194 446.392,500.499 C442.292,500.682 441.537,500.923 439.793,502.595 C436.002,506.225 435.906,512.109 439.56,516.456 C440.491,517.558 444.064,520.739 447.502,523.524 C456.88,531.12 459.704,535.394 459.704,542.002 C459.704,548.203 456.964,552.912 451.491,556.121 C448.944,557.613 447.676,557.889 442.696,558.039 C438.826,558.157 435.857,557.89 433.833,557.243 L433.833,557.243 Z M391.509,557.624 C387.201,556.317 387.046,556.058 387.046,550.211 C387.046,547.238 387.334,544.629 387.69,544.408 C388.075,544.17 388.335,544.991 388.335,546.46 C388.34,551.951 393.008,555.659 399.914,555.659 C404.46,555.659 406.895,554.6 409.167,551.621 C411.181,548.978 411.823,545.179 410.857,541.594 C410.058,538.627 407.826,536.158 397.862,527.226 C391.271,521.316 388.975,517.412 388.975,512.114 C388.975,503.492 394.448,498.221 403.444,498.177 C410.533,498.143 415.509,498.985 415.065,500.148 C414.862,500.678 414.665,503.041 414.628,505.4 C414.569,509.487 414.537,509.569 413.97,507.147 C412.9,502.574 409.574,500.364 403.763,500.364 C397.187,500.364 393.484,503.628 393.479,509.429 C393.474,513.343 395.612,516.45 401.836,521.596 C412.27,530.22 414.839,533.34 416.013,538.811 C417.612,546.271 414.261,553.113 407.423,556.347 C404.003,557.969 402.72,558.223 398.299,558.178 C395.468,558.147 392.414,557.899 391.509,557.624 L391.509,557.624 Z M189.364,501.087 C197.915,500.872 207.675,504.323 212.973,509.708 C221.188,518.056 223.426,532.158 218.257,543.083 C216.157,547.524 211.334,551.927 206.502,553.812 C199.701,556.466 185.919,556.054 182.973,553.109 C182.464,552.598 182.251,544.995 182.251,527.189 L182.251,501.992 L185.787,501.409 C186.943,501.223 188.141,501.117 189.364,501.087 L189.364,501.087 Z M179.054,499.32 C172.877,499.298 169.527,499.424 170.636,499.66 C175.72,500.741 175.59,499.859 175.379,528.655 C175.175,556.147 175.194,555.96 171.762,556.485 C170.815,556.63 171.915,556.826 174.214,556.926 C176.512,557.026 181.719,557.324 185.787,557.571 C197.708,558.29 199.389,558.258 203.972,557.287 C220.261,553.836 230.426,537.635 226.858,520.818 C225.333,513.623 219.708,505.979 213.737,502.996 C207.831,500.048 205.081,499.688 186.108,499.399 C183.478,499.361 181.114,499.328 179.054,499.32 L179.054,499.32 Z M1106.389,338.524 C1093.157,329.467 1093.409,329.69 1082.321,342.054 C1073.303,352.111 1064.102,362.115 1054.077,371.133 C1038.126,385.48 1020.805,398.073 998.114,398.65 C978.468,399.147 958.803,398.777 939.144,398.702 C937.067,398.695 934.99,398.104 931.625,397.585 C933.798,393.861 935.21,391.087 936.944,388.535 C972.26,336.603 1007.622,284.705 1042.952,232.781 C1055.813,213.879 1068.683,194.98 1081.41,175.986 C1086.289,168.701 1084.664,165.53 1076.126,165.046 C1072.914,164.863 1069.681,165.059 1066.46,164.992 C1002.245,163.658 937.678,169.756 873.444,155.382 C861.764,182.863 850.306,210.09 838.573,237.197 C836.154,242.793 836.316,246.25 842.194,249.756 C848.187,253.33 851.005,251.356 854.863,246.726 C867.016,232.135 879.357,217.67 892.215,203.702 C902.519,192.513 915.395,184.415 930.796,183.771 C953.288,182.827 975.85,183.598 998.383,183.706 C998.751,183.708 999.119,184.565 999.882,185.519 C997.81,188.832 995.71,192.378 993.432,195.806 C947.964,264.193 902.425,332.535 857.11,401.022 C854.441,405.05 853.513,410.229 851.774,414.874 C856.589,415.76 861.391,417.311 866.223,417.428 C923.524,418.785 980.995,417.791 1038.045,422.224 C1059.892,423.919 1067.339,416.44 1075.107,399.791 C1084.302,380.083 1095.858,361.475 1106.389,342.393 L1106.389,338.524 Z M168.727,284.955 C167.72,284.138 166.71,283.317 165.706,282.497 C149.46,293.156 131.959,302.343 117.298,314.857 C100.527,329.176 96.953,349.367 102.639,370.54 C107.693,389.363 123.743,397.048 141.527,389.418 C153.541,384.263 167.091,377.673 168.147,363.881 C170.147,337.713 168.727,311.279 168.727,284.955 L168.727,284.955 Z M33,234.086 C50.335,183.278 92.672,167.372 139.588,159.437 C154.823,156.861 171.164,157.683 186.562,159.931 C213.744,163.903 229.321,184.377 229.585,213.277 C229.986,256.77 230.119,300.27 230.652,343.764 C230.769,353.376 231.124,363.174 233.048,372.539 C236.609,389.854 251.733,394.099 264.433,381.41 C269.094,376.748 272.055,375.127 277.9,379.539 C283.902,384.068 281.744,388.163 279.193,392.86 C259.945,428.274 210.877,436.67 186.112,408.468 C180.939,402.58 177.518,395.157 172.905,387.829 C170.766,389.518 168.692,390.922 166.892,392.612 C143.505,414.588 115.876,425.437 83.698,425.069 C58.209,424.779 41.382,408.358 39.137,382.737 C35.967,346.572 51.254,320.996 82.617,304.681 C105.441,292.807 128.692,281.702 152.123,271.072 C164.733,265.355 171.587,257.804 169.11,243.067 C167.468,233.293 168.125,223.152 166.805,213.302 C164.606,196.883 157.052,188.568 141.485,185.907 C126.233,183.303 111.394,185.225 97.46,192.65 C90.05,196.6 86.662,201.978 87.912,210.663 C88.912,217.624 89.251,224.806 88.825,231.824 C87.868,247.597 80.436,257.119 65.644,259.646 C48.039,262.652 40.886,261.777 33,245.689 L33,234.086 Z M446.884,2 C426.829,12.777 406.834,23.666 386.703,34.299 C359.106,48.878 331.521,63.482 303.675,77.574 C295.992,81.465 297.043,85.695 299.509,92.273 C302.068,99.101 305.411,100.015 311.767,97.824 C323.301,93.841 335.039,90.44 346.744,86.962 C376.501,78.124 385.215,84.337 385.218,115.341 C385.221,189.766 385.02,264.191 384.576,338.614 C384.497,352.08 383.147,365.566 381.845,378.989 C380.862,389.108 374.433,394.612 364.524,395.197 C349.755,396.068 334.943,396.933 320.173,396.621 C310.578,396.421 310.168,401.263 310.039,408.61 C309.904,416.242 311.756,419.614 320.226,419.365 C352.411,418.416 384.613,417.66 416.807,417.652 C447.714,417.643 478.628,418.352 509.52,419.388 C518.714,419.695 518.339,414.624 518.189,408.48 C518.04,402.413 519.511,396.128 509.421,396.64 C498.207,397.214 486.833,396.967 475.671,395.754 C459.482,393.998 455.331,389.006 454.262,372.843 C454.009,368.989 454.098,365.114 454.084,361.248 C453.979,334.828 453.897,308.408 453.794,281.99 C453.588,229.18 453.13,176.368 453.243,123.56 C453.329,83.04 454.134,42.522 454.621,2 L446.884,2 Z M615.538,290.955 C615.58,317.912 617.685,344.389 628.327,369.501 C634.542,384.164 643.891,396.269 659.1,402.516 C685.858,413.507 713.366,401.665 725.557,373.335 C736.473,347.968 738.254,321.075 736.325,293.863 C734.649,270.185 729.84,247.332 715.862,227.483 C702.097,207.943 681.897,200.792 658.278,205.71 C635.076,210.542 622.658,225.477 619.035,247.769 C616.723,261.979 616.629,276.548 615.538,290.955 L615.538,290.955 Z M766,2 C773.094,11.256 771.806,15.693 761.254,21.008 C691.065,56.361 646.586,112.637 625.737,188.035 C625.012,190.653 624.864,193.427 624.063,198.586 C628.46,195.877 630.801,194.51 633.067,193.03 C668.57,169.864 706.476,165.572 745.227,182.186 C783.213,198.472 801.429,230.796 805.225,270.262 C808.602,305.349 804.054,340.128 782.751,369.9 C752.319,412.413 710.868,430.529 658.268,426.454 C598.596,421.83 564.279,376.314 552.203,325.398 C535.446,254.744 549.886,188.372 588.402,127.786 C627.72,65.937 683.213,24.428 754.124,4.261 C755.598,3.839 756.888,2.769 758.265,2 L766,2 Z" id="Fill-1"></path>
        </g>
    </g>
</svg>