<?xml version="1.0" encoding="utf-8"?>
<!-- Generator: Adobe Illustrator 16.0.0, SVG Export Plug-In . SVG Version: 6.00 Build 0)  -->
<!DOCTYPE svg PUBLIC "-//W3C//DTD SVG 1.1//EN" "http://www.w3.org/Graphics/SVG/1.1/DTD/svg11.dtd">
<svg version="1.1" id="Layer_1" xmlns="http://www.w3.org/2000/svg" xmlns:xlink="http://www.w3.org/1999/xlink" x="0px" y="0px"
	 width="767.876px" height="92.131px" viewBox="0 0 767.876 92.131" enable-background="new 0 0 767.876 92.131"
	 xml:space="preserve">
<g>
	<defs>
		<rect id="SVGID_1_" width="767.876" height="92.131"/>
	</defs>
	<clipPath id="SVGID_2_">
		<use xlink:href="#SVGID_1_"  overflow="visible"/>
	</clipPath>
	<path clip-path="url(#SVGID_2_)" fill="#333E48" d="M158.603,35.388c0,5.387-3.007,8.142-6.262,9.833
		c5.135,1.752,8.704,4.696,8.704,10.708c0,7.89-6.45,12.087-16.22,12.087h-20.289V24.179h19.663
		C153.029,24.179,158.603,28.501,158.603,35.388 M150.899,36.642c0-3.569-2.755-5.636-7.703-5.636h-11.083v11.648h10.521
		C147.58,42.653,150.899,40.712,150.899,36.642 M153.342,55.115c0-3.756-2.944-5.949-9.017-5.949h-12.212V61.19h12.775
		C150.148,61.19,153.342,59.123,153.342,55.115"/>
	<path clip-path="url(#SVGID_2_)" fill="#333E48" d="M210.409,68.016l-10.771-15.279h-9.645v15.279h-7.703V24.179h19.538
		c10.083,0,16.284,5.324,16.284,13.904c0,7.265-4.323,11.648-10.459,13.337l11.835,16.596H210.409z M201.204,31.194h-11.21V45.91
		h11.273c5.51,0,9.017-2.881,9.017-7.388C210.283,33.7,206.902,31.194,201.204,31.194"/>
	<path clip-path="url(#SVGID_2_)" fill="#333E48" d="M282.065,68.016h-8.139l-4.447-10.584h-20.73l-4.507,10.584h-7.892
		l19.288-44.149h7.139L282.065,68.016z M259.084,33.072l-7.517,17.535h15.094L259.084,33.072z"/>
	<polygon clip-path="url(#SVGID_2_)" fill="#333E48" points="332.748,24.179 340.325,24.179 340.325,68.016 333.875,68.016 
		309.701,36.83 309.701,68.016 302.124,68.016 302.124,24.179 309.263,24.179 332.748,54.49 	"/>
	<path clip-path="url(#SVGID_2_)" fill="#333E48" d="M380.483,68.016h-16.344V24.179h16.344c13.777,0,23.299,9.458,23.299,21.857
		C403.782,58.435,394.261,68.016,380.483,68.016 M380.483,31.194h-8.641v29.81h8.641c9.206,0,15.217-6.201,15.217-14.842
		C395.7,37.518,389.689,31.194,380.483,31.194"/>
	<polygon clip-path="url(#SVGID_2_)" fill="#00A1DF" points="459.24,57.245 458.988,57.245 445.278,36.704 445.278,68.017 
		437.7,68.017 437.7,24.179 445.903,24.179 459.24,44.909 472.579,24.179 480.782,24.179 480.782,68.017 473.079,68.017 
		473.079,36.578 	"/>
	<path clip-path="url(#SVGID_2_)" fill="#00A1DF" d="M546.561,68.016h-8.142l-4.447-10.584h-20.73l-4.507,10.584h-7.89
		l19.289-44.149h7.138L546.561,68.016z M523.576,33.072l-7.517,17.535h15.094L523.576,33.072z"/>
	<polygon clip-path="url(#SVGID_2_)" fill="#00A1DF" points="605.447,68.017 596.115,68.017 581.147,48.289 574.322,55.305 
		574.322,68.017 566.619,68.017 566.619,24.179 574.322,24.179 574.322,46.223 595.173,24.179 604.631,24.179 586.406,43.028 	"/>
	<polygon clip-path="url(#SVGID_2_)" fill="#00A1DF" points="657.06,31.068 632.261,31.068 632.261,42.466 654.241,42.466 
		654.241,49.354 632.261,49.354 632.261,61.127 657.373,61.127 657.373,68.016 624.558,68.016 624.558,24.179 657.06,24.179 	"/>
	<path clip-path="url(#SVGID_2_)" fill="#00A1DF" d="M707.175,68.016l-10.769-15.279h-9.645v15.279h-7.703V24.179h19.54
		c10.083,0,16.279,5.324,16.279,13.904c0,7.265-4.321,11.648-10.456,13.337l11.837,16.596H707.175z M697.969,31.194h-11.207V45.91
		h11.272c5.511,0,9.019-2.881,9.019-7.388C707.053,33.7,703.671,31.194,697.969,31.194"/>
	<path clip-path="url(#SVGID_2_)" fill="#00A1DF" d="M753.785,42.59c9.267,2.256,14.092,5.576,14.092,12.901
		c0,8.268-6.453,13.15-15.659,13.15c-6.7,0-13.022-2.316-18.285-7.013l4.633-5.511c4.199,3.633,8.395,5.697,13.844,5.697
		c4.76,0,7.764-2.19,7.764-5.573c0-3.194-1.754-4.883-9.896-6.763c-9.331-2.254-14.59-5.009-14.59-13.15
		c0-7.641,6.262-12.775,14.968-12.775c6.389,0,11.459,1.941,15.906,5.51l-4.134,5.825c-3.943-2.944-7.891-4.509-11.898-4.509
		c-4.507,0-7.138,2.316-7.138,5.26C743.391,39.084,745.392,40.586,753.785,42.59"/>
	<path clip-path="url(#SVGID_2_)" fill="#333E48" d="M81.636,46.098c2.23-1.44,4.188-3.057,5.796-4.887
		c3.203-3.642,4.823-8.684,4.812-14.997l-0.001-0.253c-0.003-4.309-0.86-8.15-2.542-11.409c-1.677-3.264-4.119-6.023-7.25-8.203
		c-3.051-2.125-6.776-3.74-11.067-4.795C67.183,0.515,62.469-0.009,57.37,0H20.461C9.152,0.03,0,9.148,0,20.458h57.475
		c3.972-0.006,7.083,0.693,9.249,2.07c1.958,1.243,2.911,3.166,2.913,5.875l0.002,0.249c0.003,2.441-0.894,4.294-2.755,5.712
		c-1.973,1.503-5.344,2.267-10.017,2.274l-30.141,0.064l0.015,9.409l-0.015,9.446h0.03c0,0,14.228,0.004,16.931,0l17.086,0.248
		c2.669,0.327,4.747,0.988,6.111,2.027c1.861,1.418,2.758,3.271,2.755,5.712l-0.002,0.248c-0.002,2.71-0.955,4.633-2.913,5.876
		c-2.166,1.377-5.277,2.076-9.249,2.068L26.704,71.67l-0.03,20.461H57.37c5.099,0.01,9.813-0.45,14.014-1.489
		c4.291-1.056,8.016-2.671,11.067-4.796c3.131-2.179,5.573-4.938,7.25-8.202c1.682-3.259,2.539-7.1,2.542-11.409l0.001-0.253
		c0.011-6.312-1.609-11.354-4.812-14.997C85.824,49.154,83.866,47.538,81.636,46.098"/>
	<path clip-path="url(#SVGID_2_)" fill="#00A1DF" d="M21.906,92.017L21.906,92.017v-66.5H0.228l0.024,44.859
		C0.259,82.318,9.965,91.999,21.906,92.017"/>
</g>
</svg>
