<?xml version="1.0" encoding="UTF-8" standalone="no"?>
<svg width="1134px" height="224px" viewBox="0 0 1134 224" version="1.1" xmlns="http://www.w3.org/2000/svg" xmlns:xlink="http://www.w3.org/1999/xlink">
    <!-- Generator: Sketch 3.7.2 (28276) - http://www.bohemiancoding.com/sketch -->
    <title>Artboard 1</title>
    <desc>Created with Sketch.</desc>
    <defs></defs>
    <g id="Page-1" stroke="none" stroke-width="1" fill="none" fill-rule="evenodd">
        <g id="Artboard-1">
            <g id="Page-1" transform="translate(-1.000000, 1.000000)">
                <polygon id="Fill-1" fill="#49C5E0" points="1021.30757 0.888318644 1084.85552 110.935039 1021.30757 220.981759 1071.56375 220.981759 1135.10982 110.935039 1071.56375 0.888318644"></polygon>
                <polygon id="Fill-2" fill="#49C5E0" points="64.5470083 0.888318644 0.999054908 110.935039 64.5470083 220.981759 114.801304 220.981759 51.2533511 110.935039 114.801304 0.888318644"></polygon>
                <polygon id="Fill-3" fill="#004259" points="95.8501404 0.890019492 32.3040772 110.93485 95.8501404 220.98157 1040.23473 220.98157 1103.78079 110.93485 1040.23473 0.890019492"></polygon>
                <g id="Group-18" transform="translate(120.081531, 41.447483)" fill="#FEFEFE">
                    <path d="M40.9498702,28.6280975 L26.8226423,28.6280975 L26.8226423,110.348148 L39.997218,110.348148 C68.0626556,110.348148 80.8648652,93.9255212 80.8648652,69.4881229 C80.8648652,42.1933008 69.223228,28.6280975 40.9498702,28.6280975 M39.997218,136.30686 L0.0935640599,136.30686 L0.0935640599,2.66938559 L41.9025225,2.66938559 C80.0974509,2.66938559 108.361358,20.6133263 108.361358,69.4881229 C108.361358,116.456081 74.3701963,136.30686 39.997218,136.30686" id="Fill-4"></path>
                    <polygon id="Fill-6" points="138.871936 136.30686 138.871936 2.66938559 231.678033 2.66938559 231.678033 28.8246398 165.602904 28.8246398 165.602904 51.925928 203.984961 51.925928 203.984961 77.8846398 165.602904 77.8846398 165.602904 110.151606 234.535989 110.151606 234.535989 136.30686"></polygon>
                    <path d="M328.823422,136.30686 L302.848527,136.30686 L255.312314,2.66938559 L284.91069,2.66938559 L310.10872,79.9880212 C312.58486,87.4320636 315.26703,97.1760297 316.416261,101.940292 C317.556041,96.9794873 320.041632,87.8156992 322.527223,79.9880212 L347.154417,2.66938559 L376.370976,2.66938559 L328.823422,136.30686 Z" id="Fill-8"></path>
                    <path d="M462.444997,28.6280975 L431.706841,28.6280975 L431.706841,62.9946653 L462.828704,62.9946653 C475.245316,62.9946653 481.915772,57.2684788 481.915772,45.6195636 C481.915772,33.9819873 474.283213,28.6280975 462.444997,28.6280975 M461.108638,88.9647161 L431.706841,88.9647161 L431.706841,136.30686 L404.966421,136.30686 L404.966421,2.66938559 L463.397649,2.66938559 C488.60513,2.66938559 509.423606,16.6068856 509.423606,45.0507246 C509.423606,75.9796907 488.792258,88.9647161 461.108638,88.9647161" id="Fill-10"></path>
                    <path d="M589.583244,27.105839 C567.999244,27.105839 559.030325,45.6205085 559.030325,69.487178 C559.030325,93.3557373 567.999244,111.870407 589.583244,111.870407 C611.155903,111.870407 620.136162,93.3557373 620.136162,69.487178 C620.136162,45.6205085 611.155903,27.105839 589.583244,27.105839 M589.583244,138.409297 C553.106492,138.409297 531.524382,110.150661 531.524382,69.487178 C531.524382,28.8255847 553.106492,0.566949153 589.583244,0.566949153 C626.059996,0.566949153 647.621314,28.8255847 647.621314,69.487178 C647.621314,110.150661 626.059996,138.409297 589.583244,138.409297" id="Fill-12"></path>
                    <path d="M721.309532,138.40873 C698.969459,138.40873 679.489233,129.057848 669.371083,114.158425 L688.65473,96.9798653 C698.016807,107.861509 710.042151,112.253475 722.831129,112.253475 C738.687875,112.253475 746.135196,107.861509 746.135196,97.7452466 C746.135196,89.1521873 741.557173,85.33095 716.347802,79.6047636 C691.711156,73.8785771 674.529392,66.0490093 674.529392,39.7066619 C674.529392,15.4563568 695.914923,0.566382203 722.262184,0.566382203 C743.07877,0.566382203 758.355229,8.39406017 770.949519,21.5661788 L751.665872,40.2773907 C743.07877,31.4953483 733.529565,26.5364331 721.309532,26.5364331 C706.985725,26.5364331 702.222464,32.6462551 702.222464,38.5576449 C702.222464,46.9560517 707.938377,49.6377212 729.13867,54.5985263 C750.338963,59.5574415 773.828268,66.8162805 773.828268,95.8308483 C773.828268,121.23017 757.774943,138.40873 721.309532,138.40873" id="Fill-14"></path>
                    <polygon id="Fill-16" points="857.447886 29.0111661 857.447886 136.306293 830.707466 136.306293 830.707466 29.0111661 792.32541 29.0111661 792.32541 2.66881864 895.829942 2.66881864 895.829942 29.0111661"></polygon>
                </g>
            </g>
        </g>
    </g>
</svg>