<?xml version="1.0" encoding="utf-8"?>
<!-- Generator: Adobe Illustrator 19.1.0, SVG Export Plug-In . SVG Version: 6.00 Build 0)  -->
<svg version="1.1" xmlns="http://www.w3.org/2000/svg" xmlns:xlink="http://www.w3.org/1999/xlink" x="0px" y="0px"
	 viewBox="0 0 251.1 46.5" style="enable-background:new 0 0 251.1 46.5;" xml:space="preserve">
<style type="text/css">
	.st0{fill:#FFFFFF;}
	.st1{display:none;}
	.st2{display:inline;}
	.st3{fill:#265A8F;}
</style>
<g id="Layer_2">
	<g>
		<g>
			<path class="st0" d="M7.3,0.8v19h15.3v-19h7.3v45.3h-7.3V26.7H7.3v19.4H0V0.8H7.3z"/>
			<path class="st0" d="M68.9,13.7v32.4h-7.3v-3.4c-1.4,1.7-4.9,3.8-9.3,3.8c-9.3,0-16.3-6.9-16.3-16.6c0-9.7,7-16.6,16.3-16.6
				c4.3,0,7.9,2,9.3,3.8v-3.4H68.9z M52.7,20.2c-5.4,0-9.5,4.4-9.5,9.7s4.1,9.7,9.5,9.7c5.2,0,9.3-4.4,9.3-9.7S57.9,20.2,52.7,20.2z
				"/>
			<path class="st0" d="M92.4,39.8c5.5,0,9.4-4,9.4-9.8h7.1c0,9.5-7.1,16.6-16.5,16.6c-9.5,0-16.6-7.1-16.6-16.6
				c0-9.5,7.1-16.6,16.6-16.6c5.1,0,8.9,1.9,11.9,4.9L99,23c-1.6-1.7-3.8-2.9-6.6-2.9c-5.6,0-9.3,4-9.3,9.8
				C83.1,35.7,86.8,39.8,92.4,39.8z"/>
			<path class="st0" d="M129.1,13.7h8.2l-6.8,9.7l13.5,22.7h-8.1L126,29.6l-4.3,6.3v10.2h-7.1V0.8l7.1-0.8v24.7L129.1,13.7z"/>
			<path class="st0" d="M161,39.8c5.5,0,9.4-4,9.4-9.8h7.1c0,9.5-7.1,16.6-16.5,16.6c-9.5,0-16.6-7.1-16.6-16.6
				c0-9.5,7.1-16.6,16.6-16.6c5.1,0,8.9,1.9,11.9,4.9l-5.2,4.7c-1.6-1.7-3.8-2.9-6.6-2.9c-5.6,0-9.3,4-9.3,9.8
				C151.7,35.7,155.4,39.8,161,39.8z"/>
			<path class="st0" d="M198.9,13.3c9.6,0,16.6,7.1,16.6,16.6s-7,16.6-16.6,16.6c-9.6,0-16.6-7.1-16.6-16.6S189.3,13.3,198.9,13.3z
				 M198.9,39.6c5.6,0,9.3-4.1,9.3-9.7s-3.8-9.7-9.3-9.7s-9.3,4.1-9.3,9.7S193.3,39.6,198.9,39.6z"/>
			<path class="st0" d="M222.7,13.7h7.1v3.7c1.5-1.9,4.4-4.1,8.9-4.1c8,0,12.4,4.7,12.4,13.3v19.4H244V28.2c0-5.7-2.4-8.2-7.1-8.2
				s-7.1,3.4-7.1,8.2v17.9h-7.1V13.7z"/>
		</g>
	</g>
</g>
<g id="Layer_1" class="st1">
	<g class="st2">
		<path class="st3" d="M281.6,24.5H257c-1.9,0-3.5-1.5-3.5-3.5V-3.4c0-1.9,1.5-3.5,3.5-3.5h24.5c1.9,0,3.5,1.5,3.5,3.5v24.5
			C285,23,283.5,24.5,281.6,24.5z"/>
		<g>
			<path class="st0" d="M7.3,0.8v19h15.3v-19h7.3v45.3h-7.3V26.7H7.3v19.4H0V0.8H7.3z"/>
			<path class="st0" d="M68.9,13.7v32.4h-7.3v-3.4c-1.4,1.7-4.9,3.8-9.3,3.8c-9.3,0-16.3-6.9-16.3-16.6c0-9.7,7-16.6,16.3-16.6
				c4.3,0,7.9,2,9.3,3.8v-3.4H68.9z M52.7,20.2c-5.4,0-9.5,4.4-9.5,9.7s4.1,9.7,9.5,9.7c5.2,0,9.3-4.4,9.3-9.7S57.9,20.2,52.7,20.2z
				"/>
			<path class="st0" d="M92.4,39.8c5.5,0,9.4-4,9.4-9.8h7.1c0,9.5-7.1,16.6-16.5,16.6c-9.5,0-16.6-7.1-16.6-16.6
				c0-9.5,7.1-16.6,16.6-16.6c5.1,0,8.9,1.9,11.9,4.9L99,23c-1.6-1.7-3.8-2.9-6.6-2.9c-5.6,0-9.3,4-9.3,9.8
				C83.1,35.7,86.8,39.8,92.4,39.8z"/>
			<path class="st0" d="M129.1,13.7h8.2l-6.8,9.7l13.5,22.7h-8.1L126,29.6l-4.3,6.3v10.2h-7.1V0.8l7.1-0.8v24.7L129.1,13.7z"/>
			<path class="st0" d="M161,39.8c5.5,0,9.4-4,9.4-9.8h7.1c0,9.5-7.1,16.6-16.5,16.6c-9.5,0-16.6-7.1-16.6-16.6
				c0-9.5,7.1-16.6,16.6-16.6c5.1,0,8.9,1.9,11.9,4.9l-5.2,4.7c-1.6-1.7-3.8-2.9-6.6-2.9c-5.6,0-9.3,4-9.3,9.8
				C151.7,35.7,155.4,39.8,161,39.8z"/>
			<path class="st0" d="M198.9,13.3c9.6,0,16.6,7.1,16.6,16.6s-7,16.6-16.6,16.6c-9.6,0-16.6-7.1-16.6-16.6S189.3,13.3,198.9,13.3z
				 M198.9,39.6c5.6,0,9.3-4.1,9.3-9.7s-3.8-9.7-9.3-9.7s-9.3,4.1-9.3,9.7S193.3,39.6,198.9,39.6z"/>
			<path class="st0" d="M222.7,13.7h7.1v3.7c1.5-1.9,4.4-4.1,8.9-4.1c8,0,12.4,4.7,12.4,13.3v19.4H244V28.2c0-5.7-2.4-8.2-7.1-8.2
				c-4.7,0-7.1,3.4-7.1,8.2v17.9h-7.1V13.7z"/>
		</g>
		<g>
			<path class="st0" d="M257.9,1.6h9.5v2.3h-7.1V8h3.5v2.3h-3.5v4.2h7.2v2.3h-9.7V1.6z"/>
			<path class="st0" d="M280,1.6v10.3c0,3-2.1,5-5,5c-2.8,0-5-2-5-5V1.6h2.4V12c0,1.5,1,2.6,2.5,2.6s2.5-1,2.5-2.6V1.6H280z"/>
		</g>
	</g>
</g>
</svg>
