<?xml version="1.0" encoding="utf-8"?>
<!-- Generator: Adobe Illustrator 16.0.0, SVG Export Plug-In . SVG Version: 6.00 Build 0)  -->
<!DOCTYPE svg PUBLIC "-//W3C//DTD SVG 1.1//EN" "http://www.w3.org/Graphics/SVG/1.1/DTD/svg11.dtd">
<svg version="1.1" id="Layer_1" xmlns="http://www.w3.org/2000/svg" xmlns:xlink="http://www.w3.org/1999/xlink" x="0px" y="0px"
	 width="1282.36px" height="280px" viewBox="0 0 1282.36 280" enable-background="new 0 0 1282.36 280" xml:space="preserve">
<g>
	<path fill="#4A4A4C" d="M605.938,211.961c0,12.314-4.752,19.024-17.045,19.024h-27.774v-75.876h25.396
		c12.695,0,19.423,7.15,19.423,21.028V211.961L605.938,211.961z M561.118,46.413h26.585c12.296,0,17.459,7.154,17.459,19.042v32.926
		c0,13.898-6.743,20.638-19.432,20.638h-24.613V46.413L561.118,46.413z M621.04,134.885c22.596-4.765,31.32-21.821,31.32-44.433
		V61.886c0-36.483-22.206-55.915-58.302-55.915h-82.506v265.493h83.293c36.114,0,58.695-19.045,58.695-55.931v-35.814
		C653.54,157.492,644.819,141.222,621.04,134.885L621.04,134.885z M415.357,0C368.148,0,339.2,31.749,339.2,72.6v130.907
		c0,40.859,28.948,73.909,76.157,73.909c46.813,0,71.417-30.663,71.417-70.334v-32.133h-44.036v31.739
		c0,15.467-8.727,27.481-26.582,27.481c-17.85,0-26.97-12.015-26.97-26.691V68.634c0-14.668,9.12-25.382,26.97-25.382
		c17.855,0,26.582,10.714,26.582,26.192v31.716h44.036V69.045C486.774,29.359,462.17,0,415.357,0L415.357,0z M271.045,111.067
		c0,13.115-5.148,19.843-17.444,19.843h-26.978V46.413h26.978c12.296,0,17.444,6.749,17.444,19.841V111.067L271.045,111.067z
		 M258.759,5.971h-81.32v265.493h49.184V169.011h32.136c37.285,0,59.885-21.431,59.885-59.121V65.455
		C318.645,27.387,296.044,5.971,258.759,5.971L258.759,5.971z M151.934,5.95h-49.597L49.183,126.944V5.95H0v265.514h49.183v-75.093
		L66.25,161.47l36.495,109.994h51.559L99.972,117.431L151.934,5.95L151.934,5.95z"/>
	<polygon fill="#4A4A4C" points="751.107,271.464 745.016,271.464 745.016,0 751.107,0 751.107,271.464 	"/>
	<path fill="#4A4A4C" d="M845.422,17.039c0-7.18-0.136-8.273-4.102-8.617l-1.709-0.136c-0.411-0.272-0.275-1.505,0.136-1.709
		c3.351,0.139,5.539,0.204,8.614,0.204c2.667,0,4.992-0.065,7.931-0.204c0.411,0.204,0.55,1.437,0.136,1.709l-1.298,0.136
		c-3.962,0.411-4.102,1.438-4.102,8.617v7.863c0,1.299,0.139,2.597,0.89,2.597c0.612,0,1.434-0.408,1.913-0.751
		c0.956-0.819,2.733-2.6,3.484-3.282l7.387-7.316c1.298-1.23,4.651-4.717,5.332-5.675c0.343-0.479,0.479-0.819,0.479-1.095
		c0-0.271-0.272-0.479-1.159-0.683l-1.848-0.411c-0.479-0.479-0.411-1.366,0.136-1.709c2.392,0.139,5.128,0.204,7.523,0.204
		c2.392,0,4.717-0.065,6.769-0.204c0.477,0.343,0.547,1.301,0.136,1.709c-1.777,0.136-4.444,0.822-6.36,1.916
		c-1.914,1.092-5.74,4.306-9.573,7.932l-6.151,5.811c-0.958,0.958-1.573,1.573-1.573,2.12c0,0.479,0.408,1.026,1.298,2.121
		c6.497,7.452,11.761,13.605,17.095,19.213c1.642,1.641,3.144,2.528,5.468,2.804l1.849,0.203c0.479,0.344,0.34,1.506-0.136,1.71
		c-1.78-0.137-4.445-0.204-7.659-0.204c-2.804,0-5.196,0.067-8.343,0.204c-0.479-0.137-0.683-1.299-0.272-1.71l1.57-0.274
		c0.958-0.136,1.641-0.34,1.641-0.684c0-0.408-0.479-0.958-0.955-1.57c-1.301-1.641-3.078-3.489-5.675-6.429l-5.474-6.154
		c-3.895-4.376-4.989-5.742-6.63-5.742c-1.023,0-1.162,0.887-1.162,3.282v8.818c0,7.18,0.139,8.139,3.966,8.55l1.848,0.203
		c0.408,0.272,0.272,1.506-0.139,1.71c-3.351-0.137-5.675-0.204-8.342-0.204c-2.803,0-5.128,0.067-7.931,0.204
		c-0.411-0.204-0.547-1.23-0.136-1.71l1.366-0.203c3.626-0.551,3.762-1.37,3.762-8.55V17.039L845.422,17.039z"/>
	<path fill="#4A4A4C" d="M906.347,17.039c0-7.18-0.136-8.273-4.445-8.617l-1.709-0.136c-0.408-0.272-0.271-1.505,0.136-1.709
		c3.833,0.139,6.154,0.204,8.89,0.204c2.668,0,4.992-0.065,8.413-0.204c0.408,0.204,0.545,1.437,0.137,1.709l-1.645,0.136
		c-4.033,0.344-4.17,1.438-4.17,8.617v23.794c0,4.309,0.204,6.086,1.438,7.385c0.751,0.751,2.049,1.573,7.452,1.573
		c5.811,0,7.245-0.275,8.339-0.891c1.37-0.819,3.146-3.282,4.516-6.769c0.408-0.341,1.707-0.068,1.707,0.411
		c0,0.751-1.913,7.727-2.869,9.572c-3.489-0.137-9.986-0.204-17.024-0.204h-6.293c-2.871,0-5.057,0.067-8.89,0.204
		c-0.407-0.204-0.544-1.299-0.136-1.71l2.05-0.203c3.969-0.411,4.104-1.37,4.104-8.55V17.039L906.347,17.039z"/>
	<path fill="#4A4A4C" d="M958.932,17.039c0-7.111-0.136-8.138-4.17-8.617l-1.097-0.136c-0.408-0.272-0.272-1.505,0.136-1.709
		c2.939,0.139,5.267,0.204,8.07,0.204h12.855c4.376,0,8.41,0,9.229-0.204c0.407,1.162,0.821,6.086,1.094,9.093
		c-0.272,0.411-1.369,0.548-1.709,0.14c-1.026-3.215-1.642-5.607-5.199-6.497c-1.435-0.344-3.622-0.411-6.63-0.411h-4.921
		c-2.052,0-2.052,0.139-2.052,2.735v13.674c0,1.917,0.203,1.917,2.253,1.917h3.969c2.868,0,4.988-0.137,5.811-0.411
		c0.819-0.272,1.299-0.684,1.642-2.393l0.547-2.804c0.343-0.411,1.505-0.411,1.777,0.068c0,1.641-0.272,4.309-0.272,6.905
		c0,2.463,0.272,5.06,0.272,6.564c-0.272,0.479-1.435,0.479-1.777,0.068l-0.618-2.668c-0.271-1.229-0.751-2.256-2.117-2.596
		c-0.958-0.275-2.597-0.344-5.264-0.344h-3.969c-2.05,0-2.253,0.068-2.253,1.846v9.641c0,3.625,0.203,5.95,1.295,7.112
		c0.822,0.821,2.256,1.573,8.274,1.573c5.267,0,7.251-0.275,8.753-1.026c1.23-0.684,3.078-3.075,4.855-6.633
		c0.479-0.341,1.435-0.137,1.71,0.479c-0.479,2.393-2.188,7.659-3.079,9.505c-6.153-0.137-12.239-0.204-18.322-0.204h-6.154
		c-2.939,0-5.267,0.067-9.301,0.204c-0.41-0.204-0.547-1.299-0.136-1.71l2.257-0.203c3.897-0.344,4.24-1.37,4.24-8.55V17.039
		L958.932,17.039z"/>
	<path fill="#4A4A4C" d="M1013.631,17.176c0-7.248-0.136-8.41-4.169-8.754l-1.71-0.136c-0.41-0.272-0.274-1.505,0.14-1.709
		c3.418,0.139,5.739,0.204,8.611,0.204c2.738,0,5.062-0.065,8.479-0.204c0.414,0.204,0.55,1.437,0.136,1.709l-1.706,0.136
		c-4.034,0.344-4.17,1.506-4.17,8.754v24.341c0,7.248,0.136,8.206,4.17,8.686l1.706,0.203c0.414,0.272,0.278,1.506-0.136,1.71
		c-3.416-0.137-5.74-0.204-8.479-0.204c-2.872,0-5.193,0.067-8.611,0.204c-0.414-0.204-0.55-1.299-0.14-1.71l1.71-0.203
		c4.033-0.479,4.169-1.438,4.169-8.686V17.176L1013.631,17.176z"/>
	<path fill="#4A4A4C" d="M1088.301,40.286c0,2.053,0,10.188,0.204,11.965c-0.136,0.411-0.544,0.751-1.301,0.751
		c-0.816-1.162-2.801-3.555-8.751-10.323l-15.862-18.051c-1.845-2.117-6.494-7.725-7.928-9.229h-0.143
		c-0.271,0.819-0.337,2.393-0.337,4.444v14.904c0,3.215,0.065,12.104,1.228,14.153c0.411,0.751,1.78,1.162,3.489,1.302l2.12,0.203
		c0.408,0.548,0.34,1.366-0.136,1.71c-3.082-0.137-5.474-0.204-8.002-0.204c-2.872,0-4.717,0.067-7.112,0.204
		c-0.479-0.344-0.544-1.299-0.136-1.71l1.848-0.203c1.57-0.207,2.664-0.615,3.005-1.37c0.958-2.46,0.893-10.803,0.893-14.085v-19.76
		c0-1.913-0.07-3.351-1.505-4.921c-0.958-0.958-2.6-1.438-4.24-1.645l-1.163-0.136c-0.407-0.408-0.407-1.435,0.137-1.709
		c2.874,0.204,6.497,0.204,7.727,0.204c1.095,0,2.257-0.065,3.146-0.204c1.366,3.489,9.437,12.512,11.693,15.043l6.63,7.452
		c4.72,5.264,8.067,9.094,11.285,12.376h0.136c0.272-0.343,0.272-1.435,0.272-2.871V23.944c0-3.214-0.068-12.101-1.37-14.153
		c-0.407-0.615-1.502-1.025-4.24-1.369l-1.162-0.136c-0.477-0.408-0.408-1.505,0.139-1.709c3.146,0.139,5.471,0.204,8.067,0.204
		c2.942,0,4.72-0.065,7.044-0.204c0.544,0.343,0.544,1.301,0.137,1.709l-0.956,0.136c-2.188,0.344-3.557,0.891-3.829,1.438
		c-1.162,2.46-1.026,10.938-1.026,14.085V40.286L1088.301,40.286z"/>
	<path fill="#4A4A4C" d="M1119.825,17.039c0-7.111-0.137-8.138-4.17-8.617l-1.095-0.136c-0.41-0.272-0.274-1.505,0.137-1.709
		c2.942,0.139,5.267,0.204,8.067,0.204h12.854c4.377,0,8.41,0,9.229-0.204c0.411,1.162,0.822,6.086,1.095,9.093
		c-0.272,0.411-1.366,0.548-1.707,0.14c-1.028-3.215-1.644-5.607-5.198-6.497c-1.435-0.344-3.62-0.411-6.63-0.411h-4.924
		c-2.05,0-2.05,0.139-2.05,2.735v13.674c0,1.917,0.201,1.917,2.254,1.917h3.966c2.871,0,4.988-0.137,5.813-0.411
		c0.819-0.272,1.298-0.684,1.642-2.393l0.544-2.804c0.343-0.411,1.505-0.411,1.777,0.068c0,1.641-0.272,4.309-0.272,6.905
		c0,2.463,0.272,5.06,0.272,6.564c-0.272,0.479-1.435,0.479-1.777,0.068l-0.615-2.668c-0.272-1.229-0.751-2.256-2.117-2.596
		c-0.958-0.275-2.6-0.344-5.267-0.344h-3.966c-2.053,0-2.254,0.068-2.254,1.846v9.641c0,3.625,0.201,5.95,1.298,7.112
		c0.819,0.821,2.257,1.573,8.271,1.573c5.268,0,7.248-0.275,8.754-1.026c1.23-0.684,3.075-3.075,4.853-6.633
		c0.479-0.341,1.435-0.137,1.709,0.479c-0.479,2.393-2.188,7.659-3.075,9.505c-6.154-0.137-12.24-0.204-18.326-0.204h-6.153
		c-2.939,0-5.261,0.067-9.295,0.204c-0.414-0.204-0.55-1.299-0.142-1.71l2.256-0.203c3.897-0.344,4.241-1.37,4.241-8.55V17.039
		L1119.825,17.039z"/>
	<path fill="#4A4A4C" d="M1180.135,26.884c0,1.23,0,1.984,0.207,2.257c0.201,0.207,1.229,0.343,4.717,0.343
		c2.46,0,5.06-0.275,7.044-1.777c1.842-1.438,3.418-3.829,3.418-8.479c0-5.402-3.354-10.53-10.941-10.53
		c-4.237,0-4.444,0.271-4.444,2.188V26.884L1180.135,26.884z M1174.53,17.107c0-6.497-0.207-7.659-3.011-7.999l-2.188-0.275
		c-0.479-0.34-0.479-1.434,0.07-1.709c3.824-0.343,8.547-0.547,15.245-0.547c4.24,0,8.274,0.343,11.417,2.052
		c3.283,1.71,5.676,4.785,5.676,9.572c0,6.497-5.125,10.052-8.544,11.418c-0.343,0.411,0,1.095,0.34,1.642
		c5.468,8.821,9.094,14.289,13.742,18.187c1.162,1.026,2.875,1.78,4.72,1.917c0.34,0.136,0.411,0.683,0.068,0.955
		c-0.618,0.207-1.712,0.343-3.011,0.343c-5.811,0-9.294-1.709-14.153-8.614c-1.777-2.531-4.577-7.248-6.697-10.324
		c-1.026-1.505-2.124-2.188-4.856-2.188c-3.078,0-3.214,0.067-3.214,1.502v8.614c0,7.18,0.136,7.999,4.102,8.55l1.437,0.203
		c0.408,0.344,0.275,1.506-0.136,1.71c-3.078-0.137-5.402-0.204-8.139-0.204c-2.868,0-5.331,0.067-8.546,0.204
		c-0.411-0.204-0.547-1.23-0.136-1.71l1.709-0.203c3.963-0.479,4.104-1.37,4.104-8.55V17.107L1174.53,17.107z"/>
	<path fill="#4A4A4C" d="M851.029,114.306c0,7.18,0.139,8.069,4.513,8.549l1.845,0.204c0.411,0.343,0.272,1.505-0.136,1.709
		c-3.898-0.136-6.154-0.204-8.89-0.204c-2.871,0-5.335,0.068-8.342,0.204c-0.408-0.204-0.547-1.298-0.136-1.709l1.438-0.204
		c3.966-0.55,4.102-1.369,4.102-8.549V89.077c0-5.813-0.136-6.976-3.211-7.316l-2.463-0.274c-0.479-0.408-0.411-1.435,0.136-1.71
		c3.623-0.479,7.863-0.547,13.542-0.547c5.675,0,9.91,0.754,13.127,2.735c3.146,1.981,5.468,5.539,5.468,10.256
		c0,6.293-3.897,9.437-6.837,10.871c-3.007,1.437-6.633,2.052-9.437,2.052c-0.479-0.204-0.479-1.229-0.068-1.366
		c7.384-1.369,10.051-5.539,10.051-11.488c0-6.631-3.897-10.939-11.01-10.939c-3.623,0-3.69,0.272-3.69,2.461V114.306
		L851.029,114.306z"/>
	<path fill="#4A4A4C" d="M896.91,89.692c0-7.112-0.136-8.136-4.17-8.614l-1.091-0.139c-0.414-0.272-0.278-1.503,0.136-1.71
		c2.939,0.14,5.261,0.207,8.067,0.207h12.852c4.377,0,8.411,0,9.232-0.207c0.411,1.162,0.819,6.086,1.095,9.094
		c-0.275,0.411-1.369,0.547-1.709,0.139c-1.023-3.214-1.642-5.606-5.199-6.497c-1.435-0.343-3.623-0.408-6.63-0.408h-4.924
		c-2.05,0-2.05,0.137-2.05,2.732v13.675c0,1.916,0.201,1.916,2.257,1.916h3.966c2.871,0,4.991-0.136,5.811-0.411
		c0.822-0.271,1.298-0.683,1.642-2.393l0.544-2.803c0.343-0.411,1.505-0.411,1.78,0.067c0,1.642-0.275,4.309-0.275,6.905
		c0,2.464,0.275,5.06,0.275,6.565c-0.275,0.479-1.438,0.479-1.78,0.067l-0.615-2.667c-0.272-1.23-0.748-2.257-2.117-2.597
		c-0.958-0.274-2.6-0.343-5.264-0.343h-3.966c-2.056,0-2.257,0.068-2.257,1.845v9.641c0,3.626,0.201,5.95,1.299,7.112
		c0.818,0.822,2.256,1.573,8.271,1.573c5.267,0,7.248-0.274,8.753-1.026c1.23-0.683,3.075-3.075,4.853-6.633
		c0.479-0.34,1.438-0.136,1.713,0.479c-0.479,2.393-2.188,7.659-3.076,9.504c-6.156-0.136-12.242-0.204-18.325-0.204h-6.154
		c-2.942,0-5.264,0.068-9.298,0.204c-0.411-0.204-0.55-1.298-0.139-1.709l2.256-0.204c3.898-0.343,4.238-1.369,4.238-8.549V89.692
		L896.91,89.692z"/>
	<path fill="#4A4A4C" d="M957.223,99.537c0,1.23,0,1.984,0.204,2.256c0.204,0.207,1.232,0.344,4.717,0.344
		c2.463,0,5.06-0.272,7.044-1.777c1.848-1.438,3.418-3.83,3.418-8.479c0-5.403-3.348-10.531-10.941-10.531
		c-4.237,0-4.441,0.272-4.441,2.188V99.537L957.223,99.537z M951.615,89.761c0-6.497-0.207-7.659-3.007-8l-2.188-0.274
		c-0.479-0.341-0.479-1.435,0.067-1.71c3.827-0.34,8.547-0.547,15.248-0.547c4.24,0,8.274,0.343,11.415,2.053
		c3.282,1.709,5.678,4.784,5.678,9.572c0,6.497-5.128,10.052-8.547,11.418c-0.343,0.411,0,1.094,0.344,1.642
		c5.468,8.821,9.09,14.289,13.738,18.187c1.169,1.026,2.875,1.78,4.723,1.916c0.341,0.136,0.408,0.684,0.065,0.955
		c-0.615,0.207-1.706,0.344-3.008,0.344c-5.813,0-9.297-1.71-14.152-8.615c-1.777-2.531-4.581-7.248-6.701-10.323
		c-1.026-1.505-2.121-2.188-4.854-2.188c-3.078,0-3.214,0.068-3.214,1.502v8.615c0,7.18,0.136,7.999,4.102,8.549l1.438,0.204
		c0.407,0.343,0.271,1.505-0.137,1.709c-3.078-0.136-5.402-0.204-8.138-0.204c-2.872,0-5.335,0.068-8.547,0.204
		c-0.408-0.204-0.547-1.229-0.136-1.709l1.706-0.204c3.969-0.479,4.104-1.369,4.104-8.549V89.761L951.615,89.761z"/>
	<path fill="#4A4A4C" d="M1010.488,89.692c0-7.18-0.137-8.274-4.103-8.614l-1.709-0.139c-0.411-0.272-0.274-1.503,0.139-1.71
		c3.348,0.14,5.536,0.207,8.615,0.207c2.664,0,4.988-0.067,7.931-0.207c0.408,0.207,0.547,1.438,0.136,1.71l-1.301,0.139
		c-3.963,0.408-4.102,1.435-4.102,8.614v7.863c0,1.298,0.139,2.597,0.89,2.597c0.615,0,1.435-0.408,1.914-0.752
		c0.958-0.818,2.735-2.599,3.486-3.282l7.384-7.316c1.302-1.229,4.652-4.716,5.335-5.675c0.34-0.479,0.477-0.818,0.477-1.094
		c0-0.272-0.272-0.477-1.159-0.684l-1.849-0.41c-0.477-0.479-0.411-1.367,0.136-1.71c2.396,0.14,5.131,0.207,7.523,0.207
		s4.72-0.067,6.769-0.207c0.479,0.343,0.548,1.302,0.137,1.71c-1.777,0.139-4.441,0.821-6.361,1.916
		c-1.913,1.091-5.74,4.306-9.569,7.931l-6.154,5.812c-0.958,0.958-1.573,1.573-1.573,2.12c0,0.479,0.411,1.026,1.302,2.12
		c6.494,7.452,11.758,13.606,17.093,19.213c1.641,1.642,3.144,2.528,5.468,2.804l1.848,0.204c0.479,0.343,0.341,1.505-0.136,1.709
		c-1.78-0.136-4.444-0.204-7.659-0.204c-2.804,0-5.196,0.068-8.342,0.204c-0.479-0.136-0.684-1.298-0.272-1.709l1.573-0.275
		c0.955-0.136,1.639-0.34,1.639-0.683c0-0.408-0.477-0.958-0.956-1.57c-1.298-1.642-3.075-3.489-5.675-6.429l-5.471-6.154
		c-3.897-4.377-4.991-5.743-6.633-5.743c-1.023,0-1.162,0.888-1.162,3.282v8.819c0,7.18,0.139,8.138,3.966,8.549l1.848,0.204
		c0.408,0.272,0.272,1.505-0.139,1.709c-3.351-0.136-5.675-0.204-8.339-0.204c-2.807,0-5.131,0.068-7.935,0.204
		c-0.408-0.204-0.544-1.229-0.136-1.709l1.369-0.204c3.622-0.55,3.759-1.369,3.759-8.549V89.692L1010.488,89.692z"/>
	<path fill="#4A4A4C" d="M1071.412,89.828c0-7.248-0.136-8.41-4.17-8.75l-1.709-0.139c-0.411-0.272-0.271-1.503,0.137-1.71
		c3.418,0.14,5.742,0.207,8.614,0.207c2.738,0,5.06-0.067,8.478-0.207c0.414,0.207,0.551,1.438,0.137,1.71l-1.707,0.139
		c-4.033,0.34-4.169,1.502-4.169,8.75v24.341c0,7.248,0.136,8.206,4.169,8.686l1.707,0.204c0.414,0.272,0.277,1.505-0.137,1.709
		c-3.418-0.136-5.739-0.204-8.478-0.204c-2.872,0-5.196,0.068-8.614,0.204c-0.408-0.204-0.548-1.298-0.137-1.709l1.709-0.204
		c4.034-0.479,4.17-1.438,4.17-8.686V89.828L1071.412,89.828z"/>
	<path fill="#4A4A4C" d="M1146.082,112.939c0,2.052,0,10.188,0.204,11.965c-0.136,0.411-0.547,0.751-1.298,0.751
		c-0.822-1.162-2.807-3.555-8.754-10.324l-15.862-18.051c-1.846-2.117-6.494-7.724-7.932-9.229h-0.139
		c-0.272,0.819-0.337,2.393-0.337,4.445V107.4c0,3.214,0.064,12.104,1.227,14.153c0.411,0.751,1.78,1.162,3.487,1.301l2.12,0.204
		c0.411,0.547,0.343,1.366-0.136,1.709c-3.079-0.136-5.472-0.204-8-0.204c-2.871,0-4.717,0.068-7.111,0.204
		c-0.479-0.343-0.545-1.298-0.137-1.709l1.846-0.204c1.573-0.207,2.667-0.615,3.007-1.369c0.959-2.46,0.891-10.803,0.891-14.085
		V87.64c0-1.913-0.068-3.351-1.502-4.921c-0.958-0.958-2.6-1.437-4.241-1.641l-1.162-0.139c-0.411-0.408-0.411-1.435,0.136-1.71
		c2.872,0.207,6.497,0.207,7.728,0.207c1.095,0,2.257-0.067,3.146-0.207c1.366,3.489,9.434,12.512,11.69,15.044l6.633,7.452
		c4.72,5.264,8.067,9.093,11.281,12.376h0.137c0.274-0.344,0.274-1.435,0.274-2.872V96.598c0-3.215-0.07-12.102-1.369-14.153
		c-0.408-0.615-1.505-1.026-4.237-1.366l-1.162-0.139c-0.482-0.408-0.411-1.503,0.133-1.71c3.146,0.14,5.474,0.207,8.07,0.207
		c2.942,0,4.72-0.067,7.041-0.207c0.55,0.343,0.55,1.302,0.139,1.71l-0.955,0.139c-2.191,0.34-3.561,0.887-3.832,1.435
		c-1.162,2.46-1.023,10.938-1.023,14.085V112.939L1146.082,112.939z"/>
	<path fill="#4A4A4C" d="M1184.171,125.655c-5.743,0-9.365-1.774-10.67-2.528c-0.815-1.506-1.706-6.358-1.845-9.573
		c0.343-0.479,1.372-0.614,1.644-0.204c1.023,3.487,3.827,10.188,11.759,10.188c5.742,0,8.549-3.762,8.549-7.863
		c0-3.008-0.618-6.358-5.609-9.573l-6.494-4.237c-3.419-2.26-7.385-6.154-7.385-11.764c0-6.494,5.061-11.758,13.949-11.758
		c2.12,0,4.578,0.408,6.355,0.887c0.89,0.275,1.848,0.411,2.396,0.411c0.614,1.642,1.229,5.471,1.229,8.343
		c-0.271,0.408-1.366,0.615-1.709,0.204c-0.891-3.283-2.732-7.728-9.298-7.728c-6.697,0-8.138,4.444-8.138,7.591
		c0,3.966,3.282,6.837,5.813,8.41l5.471,3.419c4.306,2.667,8.544,6.633,8.544,13.127
		C1198.732,120.53,1193.058,125.655,1184.171,125.655L1184.171,125.655z"/>
	<path fill="#4A4A4C" d="M848.293,156.807c4.989-3.897,11.35-5.812,18.462-5.812c3.69,0,8.889,0.751,12.101,1.642
		c0.822,0.204,1.301,0.34,1.913,0.272c0.071,1.573,0.414,5.879,0.958,10.051c-0.343,0.479-1.366,0.548-1.845,0.137
		c-1.026-4.649-4.103-9.984-14.018-9.984c-10.46,0-19.349,6.634-19.349,20.787c0,14.356,9.093,22.291,20.307,22.291
		c8.821,0,12.719-5.746,14.289-9.779c0.479-0.34,1.506-0.204,1.777,0.274c-0.479,3.555-2.256,8.067-3.279,9.366
		c-0.822,0.139-1.642,0.411-2.396,0.686c-1.505,0.548-6.426,1.57-10.8,1.57c-6.157,0-12.036-1.229-17.027-4.58
		c-5.471-3.759-9.708-9.984-9.708-18.803C839.679,167.337,843.098,160.84,848.293,156.807L848.293,156.807z"/>
	<path fill="#4A4A4C" d="M913.322,175.266c-0.547,1.573-0.481,1.641,1.438,1.641h8.407c1.984,0,2.12-0.271,1.505-2.117l-3.69-11.146
		c-0.547-1.642-1.165-3.486-1.573-4.309h-0.139c-0.204,0.343-0.891,1.984-1.639,4.033L913.322,175.266L913.322,175.266z
		 M926.86,181.352c-0.479-1.503-0.751-1.71-2.806-1.71h-10.321c-1.709,0-2.12,0.207-2.6,1.642l-2.392,7.18
		c-1.026,3.076-1.506,4.924-1.506,5.676c0,0.818,0.344,1.229,1.984,1.366l2.257,0.207c0.476,0.34,0.476,1.434-0.137,1.709
		c-1.776-0.136-3.897-0.136-7.114-0.207c-2.257,0-4.714,0.139-6.562,0.207c-0.411-0.275-0.547-1.369-0.136-1.709l2.256-0.207
		c1.642-0.137,3.144-0.888,4.104-3.348c1.228-3.146,3.144-7.592,6.013-15.251l6.979-18.459c0.955-2.463,1.363-3.762,1.162-4.855
		c1.639-0.479,2.801-1.709,3.555-2.597c0.408,0,0.888,0.137,1.023,0.615c0.89,3.008,1.984,6.151,3.011,9.161l9.365,27.484
		c1.984,5.883,2.874,6.908,5.813,7.249l1.846,0.207c0.479,0.34,0.343,1.434,0,1.709c-2.804-0.136-5.196-0.207-8.274-0.207
		c-3.282,0-5.879,0.139-7.86,0.207c-0.547-0.275-0.618-1.369-0.139-1.709l1.984-0.207c1.434-0.137,2.39-0.548,2.39-1.23
		c0-0.751-0.341-1.981-0.888-3.623L926.86,181.352L926.86,181.352z"/>
	<path fill="#4A4A4C" d="M996.402,169.25c0-4.24-0.139-12.104-1.298-14.153c-0.479-0.821-1.712-1.298-3.422-1.437l-1.709-0.137
		c-0.408-0.479-0.272-1.366,0.139-1.641c2.597,0.136,5.128,0.204,7.793,0.204c2.871,0,4.72-0.068,7.18-0.204
		c0.547,0.343,0.476,1.229,0.136,1.641l-1.641,0.137c-1.71,0.139-3.008,0.751-3.416,1.641c-0.961,2.257-0.961,10.12-0.961,13.949
		v7.728c0,5.947-0.958,12.237-4.785,16.342c-2.939,3.211-7.999,4.988-13.059,4.988c-4.72,0-9.437-0.887-12.787-3.759
		c-3.626-3.01-5.332-7.999-5.332-16.137v-16.135c0-7.112-0.136-8.274-4.104-8.617l-1.706-0.137
		c-0.411-0.274-0.275-1.437,0.136-1.641c3.419,0.136,5.743,0.204,8.479,0.204c2.801,0,5.057-0.068,8.41-0.204
		c0.408,0.204,0.544,1.366,0.136,1.641l-1.641,0.137c-3.969,0.343-4.104,1.505-4.104,8.617v14.769
		c0,11.007,3.418,18.255,13.881,18.255c9.915,0,13.677-7.796,13.677-18.188V169.25L996.402,169.25z"/>
	<path fill="#4A4A4C" d="M1035.172,171.371c0,1.845,0.207,1.845,2.256,1.845h4.652c2.8,0,4.988-0.136,5.811-0.411
		c0.751-0.271,1.298-0.615,1.709-2.393l0.612-2.735c0.343-0.411,1.505-0.411,1.78,0c0,1.642-0.275,4.377-0.275,6.905
		c0,2.464,0.275,5.06,0.275,6.633c-0.275,0.411-1.298,0.411-1.78,0l-0.68-2.667c-0.344-1.23-0.891-2.188-2.191-2.597
		c-0.955-0.274-2.665-0.343-5.261-0.343h-4.652c-2.049,0-2.256,0.068-2.256,1.845v9.505c0,7.181,0.136,8.206,4.172,8.547
		l2.325,0.207c0.411,0.271,0.271,1.502-0.137,1.709c-4.033-0.136-6.36-0.207-9.096-0.207c-3.011,0-5.332,0.071-8.544,0.207
		c-0.414-0.207-0.55-1.299-0.136-1.709l1.706-0.207c3.963-0.477,4.104-1.366,4.104-8.547v-24.613c0-7.18-0.142-8.138-4.104-8.617
		l-1.094-0.136c-0.411-0.272-0.275-1.505,0.136-1.709c2.872,0.136,5.199,0.204,7.932,0.204h12.583c4.376,0,8.339,0,9.229-0.204
		c0,3.146,0.067,6.429,0.204,9.025c-0.204,0.411-1.16,0.615-1.639,0.207c-0.547-3.079-1.369-5.61-4.788-6.497
		c-1.505-0.411-3.761-0.411-6.633-0.411h-4.173c-2.049,0-2.049,0.136-2.049,2.735V171.371L1035.172,171.371z"/>
	<path fill="#4A4A4C" d="M1081.124,162.481c0-7.248-0.14-8.41-4.173-8.754l-1.706-0.136c-0.414-0.272-0.278-1.505,0.136-1.709
		c3.419,0.136,5.743,0.204,8.614,0.204c2.735,0,5.06-0.068,8.479-0.204c0.408,0.204,0.544,1.437,0.136,1.709l-1.709,0.136
		c-4.033,0.344-4.17,1.506-4.17,8.754v24.341c0,7.248,0.137,8.206,4.17,8.683l1.709,0.207c0.408,0.271,0.272,1.502-0.136,1.709
		c-3.419-0.136-5.743-0.207-8.479-0.207c-2.871,0-5.195,0.071-8.614,0.207c-0.414-0.207-0.55-1.299-0.136-1.709l1.706-0.207
		c4.033-0.477,4.173-1.435,4.173-8.683V162.481L1081.124,162.481z"/>
	<path fill="#4A4A4C" d="M1119.006,162.345c0-7.111-0.139-8.138-4.17-8.617l-1.094-0.136c-0.414-0.272-0.272-1.505,0.136-1.709
		c2.939,0.136,5.264,0.204,8.067,0.204h12.854c4.374,0,8.408,0,9.229-0.204c0.411,1.162,0.819,6.086,1.095,9.093
		c-0.275,0.411-1.366,0.548-1.71,0.14c-1.022-3.215-1.641-5.61-5.195-6.497c-1.438-0.343-3.623-0.411-6.633-0.411h-4.924
		c-2.05,0-2.05,0.136-2.05,2.735v13.674c0,1.917,0.207,1.917,2.257,1.917h3.963c2.874,0,4.994-0.14,5.813-0.411
		c0.822-0.275,1.298-0.684,1.642-2.393l0.547-2.804c0.34-0.411,1.505-0.411,1.78,0.068c0,1.641-0.275,4.309-0.275,6.905
		c0,2.46,0.275,5.06,0.275,6.564c-0.275,0.479-1.44,0.479-1.78,0.068l-0.615-2.668c-0.275-1.229-0.751-2.256-2.12-2.599
		c-0.958-0.272-2.6-0.341-5.267-0.341h-3.963c-2.05,0-2.257,0.068-2.257,1.846v9.641c0,3.625,0.207,5.95,1.299,7.112
		c0.821,0.818,2.256,1.573,8.274,1.573c5.267,0,7.245-0.275,8.75-1.026c1.233-0.684,3.075-3.075,4.855-6.633
		c0.479-0.344,1.435-0.137,1.707,0.479c-0.477,2.393-2.186,7.656-3.073,9.505c-6.153-0.136-12.239-0.207-18.322-0.207h-6.157
		c-2.939,0-5.264,0.071-9.298,0.207c-0.411-0.207-0.547-1.299-0.136-1.709l2.256-0.207c3.896-0.341,4.238-1.366,4.238-8.547V162.345
		L1119.006,162.345z"/>
	<path fill="#4A4A4C" d="M1173.708,162.345c0-7.18-0.139-8.273-4.444-8.617l-1.709-0.136c-0.411-0.272-0.275-1.505,0.136-1.709
		c3.833,0.136,6.154,0.204,8.89,0.204c2.667,0,4.991-0.068,8.407-0.204c0.414,0.204,0.55,1.437,0.142,1.709l-1.645,0.136
		c-4.033,0.344-4.169,1.438-4.169,8.617v23.794c0,4.306,0.204,6.083,1.437,7.385c0.752,0.751,2.05,1.573,7.453,1.573
		c5.811,0,7.244-0.275,8.342-0.891c1.366-0.819,3.144-3.282,4.51-6.769c0.411-0.344,1.709-0.068,1.709,0.411
		c0,0.751-1.913,7.724-2.868,9.572c-3.489-0.136-9.983-0.207-17.024-0.207h-6.293c-2.872,0-5.057,0.071-8.89,0.207
		c-0.411-0.207-0.547-1.299-0.136-1.709l2.049-0.207c3.966-0.408,4.104-1.366,4.104-8.547V162.345L1173.708,162.345z"/>
	<path fill="#4A4A4C" d="M1231.9,185.385c0,3.626,0.204,5.814,1.366,7.455c1.505,2.117,4.104,2.804,8.41,2.804
		c13.267,0,19.213-8.686,19.213-21.401c0-7.523-3.625-20.239-21.54-20.239c-4.033,0-6.219,0.547-6.766,0.958
		c-0.551,0.408-0.684,2.117-0.684,5.196V185.385L1231.9,185.385z M1226.293,160.976c0-4.784-0.343-6.222-3.214-6.633l-1.505-0.204
		c-0.548-0.34-0.615-1.437,0.07-1.709c5.812-0.343,11.35-0.547,17.161-0.547c5.739,0,10.599,0.411,15.043,2.052
		c9.229,3.351,13.878,11.144,13.878,20.169c0,8.685-4.172,16.137-11.965,20.378c-4.444,2.393-10.051,3.279-15.318,3.279
		c-4.376,0-8.75-0.547-11.14-0.547c-2.874,0-5.338,0.071-8.549,0.207c-0.411-0.207-0.548-1.299-0.136-1.709l1.569-0.207
		c3.966-0.548,4.104-1.366,4.104-8.547V160.976L1226.293,160.976z"/>
	<path fill="#4A4A4C" d="M851.029,258.585c0,2.463,0.139,5.95,1.437,7.455c1.295,1.57,3.351,1.913,5.4,1.913
		c6.086,0,10.735-2.735,10.735-9.572c0-5.4-2.735-11.693-13.606-11.693c-3.691,0-3.966,0.411-3.966,1.78V258.585L851.029,258.585z
		 M851.029,242.723c0,1.916,0.068,2.052,3.555,1.916c6.973-0.275,10.735-2.324,10.735-8.754c0-6.7-4.992-9.229-10.188-9.229
		c-1.505,0-2.528,0.137-3.146,0.408c-0.68,0.207-0.955,0.551-0.955,1.78V242.723L851.029,242.723z M845.422,233.629
		c0-5.06-0.272-6.358-3.351-6.633l-2.188-0.204c-0.547-0.411-0.476-1.438,0.071-1.71c3.69-0.343,8.339-0.547,14.697-0.547
		c4.306,0,8.41,0.344,11.486,1.917c2.942,1.434,5.196,4.169,5.196,8.546c0,4.921-2.868,7.452-6.973,9.365
		c0,0.684,0.55,0.891,1.301,1.026c3.693,0.684,9.162,4.102,9.162,11.421c0,7.928-5.879,13.263-18.187,13.263
		c-1.984,0-5.332-0.207-8.206-0.207c-3.008,0-5.332,0.14-7.86,0.207c-0.411-0.207-0.55-1.298-0.139-1.709l1.23-0.207
		c3.626-0.615,3.762-1.366,3.762-8.546V233.629L845.422,233.629z"/>
	<path fill="#4A4A4C" d="M915.783,259.475c0,7.316,0.411,8.41,4.102,8.683l2.6,0.207c0.411,0.411,0.271,1.502-0.137,1.709
		c-4.24-0.136-6.564-0.207-9.3-0.207c-2.872,0-5.332,0.071-8.958,0.207c-0.411-0.207-0.547-1.298-0.136-1.709l2.12-0.207
		c3.963-0.408,4.102-1.366,4.102-8.683v-3.486c0-3.762-0.204-4.648-2.188-8.479l-8.066-15.727c-2.325-4.513-3.351-4.855-5.403-5.195
		l-1.913-0.343c-0.411-0.479-0.343-1.435,0.136-1.71c2.186,0.137,4.648,0.204,7.932,0.204c3.146,0,5.609-0.067,7.315-0.204
		c0.615,0.204,0.615,1.299,0.207,1.71l-0.89,0.136c-2.393,0.343-2.871,0.683-2.871,1.233c0,0.683,1.777,4.58,2.12,5.264
		c2.528,5.06,5.06,10.463,7.724,15.179c2.121-3.625,4.38-7.588,6.43-11.557c1.913-3.555,4.441-8.203,4.441-9.025
		c0-0.411-1.23-0.887-2.871-1.094l-1.228-0.136c-0.479-0.479-0.414-1.435,0.136-1.71c2.461,0.137,4.445,0.204,6.562,0.204
		c2.12,0,4.036-0.067,6.357-0.204c0.548,0.344,0.618,1.299,0.14,1.71l-1.917,0.343c-3.554,0.615-5.606,4.921-9.025,10.803
		l-4.309,7.452c-3.007,5.195-3.211,5.811-3.211,11.077V259.475L915.783,259.475z"/>
	<path fill="#4A4A4C" d="M955.578,234.998c0-7.112-0.136-8.139-4.17-8.617l-1.094-0.136c-0.411-0.272-0.272-1.506,0.139-1.71
		c2.939,0.137,5.264,0.204,8.064,0.204h12.855c4.376,0,8.41,0,9.232-0.204c0.411,1.162,0.818,6.086,1.094,9.094
		c-0.275,0.411-1.369,0.547-1.709,0.139c-1.023-3.214-1.642-5.609-5.196-6.497c-1.437-0.343-3.625-0.411-6.633-0.411h-4.924
		c-2.049,0-2.049,0.137-2.049,2.736v13.674c0,1.916,0.204,1.916,2.256,1.916h3.966c2.871,0,4.988-0.139,5.811-0.411
		c0.822-0.271,1.299-0.683,1.642-2.393l0.544-2.803c0.343-0.411,1.505-0.411,1.783,0.067c0,1.642-0.278,4.309-0.278,6.905
		c0,2.461,0.278,5.06,0.278,6.565c-0.278,0.479-1.44,0.479-1.783,0.067l-0.612-2.667c-0.274-1.23-0.751-2.257-2.12-2.6
		c-0.958-0.271-2.6-0.34-5.264-0.34h-3.966c-2.052,0-2.256,0.068-2.256,1.846v9.64c0,3.626,0.204,5.95,1.298,7.112
		c0.822,0.822,2.256,1.573,8.274,1.573c5.264,0,7.245-0.274,8.75-1.026c1.233-0.683,3.076-3.075,4.853-6.633
		c0.479-0.343,1.44-0.136,1.713,0.479c-0.479,2.393-2.188,7.656-3.076,9.504c-6.153-0.136-12.239-0.207-18.325-0.207h-6.157
		c-2.939,0-5.261,0.071-9.295,0.207c-0.41-0.207-0.547-1.298-0.136-1.709l2.257-0.207c3.892-0.34,4.234-1.366,4.234-8.546V234.998
		L955.578,234.998z"/>
	<path fill="#4A4A4C" d="M1015.891,244.843c0,1.23,0,1.984,0.204,2.256c0.207,0.207,1.233,0.344,4.717,0.344
		c2.463,0,5.06-0.275,7.044-1.777c1.846-1.438,3.419-3.83,3.419-8.481c0-5.4-3.351-10.528-10.942-10.528
		c-4.237,0-4.441,0.272-4.441,2.188V244.843L1015.891,244.843z M1010.284,235.066c0-6.497-0.207-7.659-3.008-8.003l-2.188-0.271
		c-0.479-0.34-0.479-1.438,0.065-1.71c3.832-0.343,8.549-0.547,15.25-0.547c4.24,0,8.274,0.344,11.418,2.053
		c3.282,1.709,5.672,4.784,5.672,9.572c0,6.494-5.125,10.049-8.544,11.418c-0.343,0.411,0,1.094,0.341,1.642
		c5.471,8.818,9.096,14.289,13.742,18.187c1.165,1.026,2.874,1.777,4.72,1.916c0.34,0.136,0.411,0.684,0.067,0.955
		c-0.614,0.207-1.709,0.344-3.01,0.344c-5.812,0-9.295-1.71-14.153-8.615c-1.777-2.531-4.578-7.248-6.698-10.326
		c-1.026-1.502-2.12-2.188-4.853-2.188c-3.079,0-3.215,0.068-3.215,1.505v8.615c0,7.18,0.136,7.999,4.102,8.546l1.435,0.207
		c0.411,0.34,0.274,1.502-0.137,1.709c-3.075-0.136-5.399-0.207-8.135-0.207c-2.871,0-5.335,0.071-8.547,0.207
		c-0.413-0.207-0.55-1.229-0.136-1.709l1.706-0.207c3.969-0.476,4.105-1.366,4.105-8.546V235.066L1010.284,235.066z"/>
	<path fill="#4A4A4C" d="M1075.718,270.961c-5.739,0-9.365-1.777-10.663-2.528c-0.822-1.506-1.71-6.361-1.846-9.573
		c0.34-0.479,1.366-0.614,1.642-0.203c1.022,3.486,3.829,10.188,11.758,10.188c5.745,0,8.546-3.762,8.546-7.863
		c0-3.008-0.615-6.358-5.604-9.573l-6.497-4.24c-3.419-2.257-7.384-6.154-7.384-11.761c0-6.494,5.06-11.758,13.945-11.758
		c2.124,0,4.584,0.408,6.361,0.887c0.891,0.275,1.846,0.411,2.396,0.411c0.612,1.642,1.228,5.468,1.228,8.343
		c-0.272,0.408-1.367,0.615-1.707,0.204c-0.89-3.283-2.738-7.728-9.3-7.728c-6.701,0-8.136,4.444-8.136,7.591
		c0,3.966,3.282,6.838,5.811,8.411l5.472,3.418c4.306,2.665,8.546,6.63,8.546,13.127
		C1090.285,265.833,1084.61,270.961,1075.718,270.961L1075.718,270.961z"/>
</g>
</svg>
