<?xml version="1.0" encoding="UTF-8" standalone="no"?>
<svg width="1134px" height="246px" viewBox="0 0 1134 246" version="1.1" xmlns="http://www.w3.org/2000/svg" xmlns:xlink="http://www.w3.org/1999/xlink">
    <!-- Generator: Sketch 3.7.2 (28276) - http://www.bohemiancoding.com/sketch -->
    <title>Artboard 1</title>
    <desc>Created with Sketch.</desc>
    <defs>
        <polygon id="path-1" points="0 242 1134 242 1134 0 0 0"></polygon>
    </defs>
    <g id="Page-1" stroke="none" stroke-width="1" fill="none" fill-rule="evenodd">
        <g id="Artboard-1">
            <g id="Page-1" transform="translate(-1.000000, 0.000000)">
                <path d="M1134,109 L1134,90 L1109,90 L1109,58.509 L1108.35,58.765 L1085.271,65.884 L1085,66.023 L1085,90 L1048,90 L1048,76.433 C1048,70.337 1049.404,65.672 1052.089,62.561 C1054.758,59.488 1058.596,57.926 1063.459,57.926 C1066.958,57.926 1070.513,58.751 1074.156,60.376 L1075,60.783 L1075,39.775 L1074.651,39.617 C1071.25,38.395 1066.665,37.779 1060.933,37.779 C1053.708,37.779 1047.161,39.351 1041.437,42.467 C1035.707,45.586 1031.05,50.042 1027.895,55.707 C1024.747,61.364 1023,67.898 1023,75.129 L1023,90 L1006,90 L1006,109 L1023,109 L1023,194 L1048,194 L1048,109 L1085,109 L1085,162.873 C1085,184.868 1095.278,196.014 1115.737,196.014 C1119.101,196.014 1122.59,195.619 1126.204,194.847 C1129.88,194.057 1132.293,193.264 1133.767,192.42 L1134,192.227 L1134,172.096 L1133.062,172.762 C1131.718,173.658 1130.079,174.39 1128.116,174.934 C1126.147,175.486 1124.518,175.766 1123.242,175.766 C1118.448,175.766 1114.73,174.473 1112.529,171.925 C1110.304,169.354 1109,164.854 1109,158.563 L1109,109 L1134,109 L1134,109 Z" id="Fill-1" fill="#6F6F6F"></path>
                <path d="M971.3271,167.083 C966.7301,172.841 959.8161,175.766 950.7751,175.766 C941.7871,175.766 934.7021,172.786 929.7071,166.916 C924.6841,161.016 922.1381,152.603 922.1381,141.917 C922.1381,130.891 924.6841,122.261 929.7111,116.256 C934.7071,110.291 941.7241,107.265 950.5741,107.265 C959.1591,107.265 965.9941,110.155 970.8881,115.862 C975.8101,121.598 978.3061,130.16 978.3061,141.315 C978.3061,152.606 975.9581,161.28 971.3271,167.083 M989.9481,101.303 C980.8401,91.822 968.0291,87.016 951.8771,87.016 C934.7301,87.016 921.1111,92.04 911.4001,101.95 C901.6971,111.86 896.7771,125.575 896.7771,142.717 C896.7771,158.996 901.5801,172.094 911.0541,181.633 C920.5261,191.177 933.4181,196.012 949.3691,196.012 C965.9901,196.012 979.3381,190.919 989.0471,180.873 C998.7501,170.834 1003.6681,157.25 1003.6681,140.51 C1003.6681,123.974 999.0551,110.781 989.9481,101.303" id="Fill-3" fill="#6F6F6F"></path>
                <path d="M856.8516,87.0156 C845.1896,87.0156 835.5406,89.9986 828.1716,95.8816 C820.7556,101.7976 816.9946,109.5596 816.9946,118.9506 C816.9946,123.8326 817.8066,128.1686 819.4036,131.8456 C821.0126,135.5366 823.4986,138.7856 826.8036,141.5116 C830.0836,144.2166 835.1466,147.0486 841.8566,149.9316 C847.4946,152.2516 851.7016,154.2156 854.3726,155.7626 C856.9846,157.2796 858.8376,158.8036 859.8846,160.2886 C860.9016,161.7416 861.4176,163.7286 861.4176,166.1826 C861.4176,173.1686 856.1876,176.5676 845.4226,176.5676 C841.4296,176.5676 836.8726,175.7346 831.8846,174.0896 C826.8916,172.4486 822.2316,170.0876 818.0246,167.0606 L816.9996,166.3246 L816.9996,190.1636 L817.3746,190.3386 C820.8776,191.9566 825.2946,193.3206 830.4996,194.3936 C835.6966,195.4676 840.4166,196.0136 844.5206,196.0136 C857.1756,196.0136 867.3676,193.0156 874.8046,187.0996 C882.2896,181.1416 886.0836,173.1976 886.0836,163.4806 C886.0836,156.4706 884.0416,150.4596 880.0156,145.6126 C876.0196,140.8046 869.0816,136.3896 859.4046,132.4886 C851.6936,129.3936 846.7556,126.8256 844.7176,124.8536 C842.7536,122.9486 841.7576,120.2556 841.7576,116.8436 C841.7576,113.8206 842.9886,111.3976 845.5146,109.4346 C848.0626,107.4626 851.6056,106.4596 856.0526,106.4596 C860.1776,106.4596 864.3986,107.1106 868.5976,108.3886 C872.7916,109.6656 876.6956,111.3756 879.7706,113.4686 L880.9996,114.1596 L880.9996,91.5456 L880.3946,91.3786 C877.5546,90.1616 873.7066,89.1206 869.1616,88.2756 C864.6346,87.4386 860.4216,87.0156 856.8516,87.0156" id="Fill-5" fill="#6F6F6F"></path>
                <path d="M772.9941,167.083 C768.3961,172.841 761.4851,175.766 752.4411,175.766 C743.4561,175.766 736.3691,172.786 731.3751,166.915 C726.3501,161.016 723.8071,152.606 723.8071,141.917 C723.8071,130.891 726.3511,122.261 731.3821,116.256 C736.3731,110.291 743.3891,107.265 752.2421,107.265 C760.8261,107.265 767.6591,110.155 772.5571,115.862 C777.4761,121.598 779.9731,130.16 779.9731,141.315 C779.9731,152.606 777.6251,161.28 772.9941,167.083 M791.6141,101.303 C782.5041,91.821 769.6951,87.016 753.5471,87.016 C736.3941,87.016 722.7751,92.04 713.0711,101.95 C703.3671,111.86 698.4431,125.575 698.4431,142.717 C698.4431,159.004 703.2501,172.092 712.7231,181.633 C722.1951,191.177 735.0871,196.012 751.0381,196.012 C767.6541,196.012 781.0091,190.918 790.7151,180.871 C800.4161,170.834 805.3371,157.25 805.3371,140.51 C805.3371,123.974 800.7211,110.781 791.6141,101.303" id="Fill-7" fill="#6F6F6F"></path>
                <path d="M661,108 L661,90 L636,90 L636,194 L661,194 L661,140.313 C661,131.268 662.978,123.838 667.023,118.225 C671.021,112.68 676.308,109.87 682.807,109.87 C685.01,109.87 687.466,110.233 690.144,110.951 C692.796,111.667 694.778,112.441 695.909,113.258 L697,114.002 L697,89.343 L696.532,89.172 C694.253,88.205 690.995,87.717 686.918,87.717 C680.772,87.717 675.253,89.928 670.541,93.816 C666.406,97.233 663.4,102 661.112,108 L661,108 Z" id="Fill-9" fill="#6F6F6F"></path>
                <path d="M592.5908,87.0156 C581.3708,87.0156 571.3618,89.4226 562.8458,94.1646 C554.3138,98.9196 547.7178,105.7066 543.2288,114.3386 C538.7608,122.9486 536.4908,133.0066 536.4908,144.2216 C536.4908,154.0466 538.6918,163.0626 543.0388,171.0076 C547.3898,178.9676 553.5488,185.1956 561.3428,189.5136 C569.1258,193.8266 578.1228,196.0136 588.0838,196.0136 C599.7068,196.0136 609.6768,193.6896 617.6338,189.1076 L617.9998,188.9216 L617.9998,166.5136 L616.9268,167.2636 C613.3218,169.8886 609.2728,171.9846 604.9368,173.4946 C600.6148,175.0036 596.6628,175.7656 593.2088,175.7656 C583.6088,175.7656 575.8998,172.7626 570.3068,166.8416 C564.7008,160.9136 561.8558,152.5896 561.8558,142.1136 C561.8558,131.5726 564.8178,123.0346 570.6598,116.7326 C576.4828,110.4516 584.2018,107.2656 593.6008,107.2656 C601.6398,107.2656 609.5178,109.9876 616.9318,115.3636 L617.9998,116.1086 L617.9998,92.4976 L617.6228,92.3116 C614.8358,90.7496 611.0088,89.4606 606.2858,88.4826 C601.5838,87.5076 596.9628,87.0156 592.5908,87.0156" id="Fill-11" fill="#6F6F6F"></path>
                <mask id="mask-2" fill="white">
                    <use xlink:href="#path-1"></use>
                </mask>
                <g id="Clip-14"></g>
                <polygon id="Fill-13" fill="#6F6F6F" mask="url(#mask-2)" points="495 194 520 194 520 90 495 90"></polygon>
                <path d="M507.6646,45.2246 C503.6386,45.2246 500.1276,46.5946 497.2436,49.3106 C494.3466,52.0346 492.8756,55.4626 492.8756,59.5096 C492.8756,63.4926 494.3296,66.8586 497.1966,69.5086 C500.0466,72.1526 503.5686,73.4926 507.6646,73.4926 C511.7586,73.4926 515.2946,72.1526 518.1786,69.5136 C521.0826,66.8586 522.5546,63.4926 522.5546,59.5096 C522.5546,55.6046 521.1226,52.2096 518.2976,49.4196 C515.4786,46.6356 511.8996,45.2246 507.6646,45.2246" id="Fill-15" fill="#6F6F6F" mask="url(#mask-2)"></path>
                <polygon id="Fill-16" fill="#6F6F6F" mask="url(#mask-2)" points="447 82 447 194 472 194 472 48 437.051 48 393.136 155.771 350.52 48 315 48 315 194 338 194 338 82 338.829 82 383.83 194 401.532 194 445.831 82"></polygon>
                <polygon id="Fill-17" fill="#FF3E00" mask="url(#mask-2)" points="0 115 115 115 115 0 0 0"></polygon>
                <polygon id="Fill-18" fill="#6ABC00" mask="url(#mask-2)" points="127 115 242 115 242 0 127 0"></polygon>
                <polygon id="Fill-19" fill="#00A7F2" mask="url(#mask-2)" points="0 242 115 242 115 127 0 127"></polygon>
                <polygon id="Fill-20" fill="#FFB700" mask="url(#mask-2)" points="127 242 242 242 242 127 127 127"></polygon>
            </g>
        </g>
    </g>
</svg>